<svg  xmlns="http://www.w3.org/2000/svg" xmlns:xlink="http://www.w3.org/1999/xlink" width="519" height="159" viewBox="0 0 519 159">
<defs>
<linearGradient id="PSgrad_0" x1="0%" x2="100%" y1="0%" y2="0%">
  <stop offset="1%" stop-color="rgb(0,183,184)" stop-opacity="1" />
  <stop offset="65%" stop-color="rgb(95,213,133)" stop-opacity="1" />
  <stop offset="100%" stop-color="rgb(190,243,81)" stop-opacity="1" />
</linearGradient>
</defs>
<path fill-rule="evenodd"  fill="rgb(6, 182, 181)"
 d="M516.438,58.471 C515.303,59.744 514.044,60.380 512.661,60.380 C511.775,60.380 510.820,60.035 509.797,59.342 C508.773,58.651 508.040,58.305 507.597,58.305 C505.494,58.305 503.004,61.874 500.127,69.013 L485.683,104.872 C480.979,116.382 474.256,128.156 465.513,140.192 C456.768,152.228 446.724,158.246 435.381,158.246 C431.950,158.246 429.391,157.458 427.702,155.880 C426.015,154.303 425.171,152.546 425.171,150.609 C425.171,149.004 425.725,147.648 426.831,146.542 C427.939,145.434 429.404,144.882 431.230,144.882 C434.994,144.882 437.622,146.679 439.116,150.277 C440.168,152.546 441.246,153.681 442.353,153.681 C444.898,153.681 449.187,151.259 455.220,146.417 C461.251,141.574 467.725,132.209 474.643,118.319 L460.698,67.851 C459.370,62.982 458.387,59.869 457.751,58.512 C457.114,57.157 456.160,56.479 454.888,56.479 C451.788,56.479 448.218,62.318 444.180,73.993 L440.610,73.993 C443.377,65.028 446.697,58.305 450.571,53.822 C454.444,49.340 458.428,47.099 462.524,47.099 C465.235,47.099 467.601,48.067 469.621,50.004 C471.641,51.942 473.591,56.313 475.473,63.119 L485.019,97.899 L485.351,97.899 C486.513,94.247 489.570,86.099 494.524,73.454 C499.476,60.809 502.893,53.255 504.775,50.792 C506.656,48.331 508.953,47.099 511.665,47.099 C515.981,47.099 518.139,49.202 518.139,53.407 C518.139,55.511 517.571,57.198 516.438,58.471 ZM440.988,53.407 L430.114,53.407 L419.074,100.141 C418.188,103.627 417.746,106.117 417.746,107.611 C417.746,109.770 418.659,110.849 420.485,110.849 C424.912,110.849 429.782,104.208 435.095,90.927 L438.498,90.927 C435.842,99.283 432.410,105.633 428.205,109.977 C423.999,114.322 419.489,116.493 414.675,116.493 C406.872,116.493 402.971,112.509 402.971,104.540 C402.971,102.272 403.635,98.260 404.963,92.504 L414.177,53.407 L403.303,53.407 L404.133,49.174 L415.339,49.174 L419.074,33.153 C424.719,33.099 430.058,32.296 435.095,30.746 L431.193,49.174 L441.901,49.174 L440.988,53.407 ZM367.537,116.493 C360.233,116.493 356.580,112.675 356.580,105.038 C356.580,102.714 356.912,100.252 357.576,97.650 C358.240,95.050 358.766,92.919 359.154,91.259 L368.367,53.407 L352.679,53.407 L353.592,49.174 L363.221,49.174 C371.134,49.174 378.577,48.649 385.550,47.597 L373.099,98.813 C372.213,103.019 371.771,105.731 371.771,106.947 C371.771,108.995 372.794,110.019 374.842,110.019 C377.387,110.019 380.333,108.179 383.682,104.499 C387.030,100.819 390.309,95.355 393.519,88.104 L397.254,88.104 C390.004,107.030 380.099,116.493 367.537,116.493 ZM384.803,22.113 C382.367,22.113 380.237,21.214 378.411,19.416 C376.585,17.618 375.672,15.445 375.672,12.899 C375.672,10.409 376.585,8.265 378.411,6.466 C380.237,4.669 382.367,3.769 384.803,3.769 C387.348,3.769 389.520,4.654 391.319,6.425 C393.117,8.197 394.017,10.355 394.017,12.899 C394.017,15.445 393.104,17.618 391.278,19.416 C389.451,21.214 387.293,22.113 384.803,22.113 ZM302.483,116.493 C297.779,116.493 293.877,115.082 290.779,112.260 C287.679,109.437 286.130,106.007 286.130,101.967 C286.130,99.145 286.766,95.243 288.039,90.263 L294.514,63.949 C294.735,63.729 295.039,62.428 295.427,60.048 C295.814,57.669 296.008,56.368 296.008,56.146 C296.008,54.432 295.233,53.573 293.684,53.573 C289.920,53.573 285.438,59.633 280.237,71.752 L276.501,71.752 C282.644,55.316 290.613,47.099 300.408,47.099 C307.601,47.099 311.199,50.613 311.199,57.641 C311.199,59.301 310.396,63.368 308.791,69.843 L301.985,97.733 C301.099,101.386 300.657,104.015 300.657,105.619 C300.657,107.169 301.209,108.483 302.317,109.562 C303.423,110.641 304.834,111.181 306.550,111.181 C311.365,111.181 316.345,108.400 321.492,102.838 C326.638,97.277 330.567,90.429 333.279,82.294 C335.989,74.159 337.346,68.432 337.346,65.111 C337.346,63.673 336.321,62.760 334.275,62.372 C328.630,61.488 325.808,58.886 325.808,54.569 C325.808,52.577 326.472,50.834 327.800,49.340 C329.128,47.846 331.009,47.099 333.445,47.099 C338.978,47.099 341.746,50.946 341.746,58.637 C341.746,71.586 337.954,84.466 330.373,97.277 C322.791,110.089 313.494,116.493 302.483,116.493 ZM244.637,116.493 C237.333,116.493 233.680,112.675 233.680,105.038 C233.680,102.714 234.012,100.252 234.676,97.650 C235.340,95.050 235.866,92.919 236.254,91.259 L245.467,53.407 L229.779,53.407 L230.692,49.174 L240.321,49.174 C248.234,49.174 255.677,48.649 262.650,47.597 L250.199,98.813 C249.313,103.019 248.871,105.731 248.871,106.947 C248.871,108.995 249.894,110.019 251.942,110.019 C254.487,110.019 257.433,108.179 260.782,104.499 C264.130,100.819 267.409,95.355 270.619,88.104 L274.354,88.104 C267.104,107.030 257.199,116.493 244.637,116.493 ZM261.903,22.113 C259.467,22.113 257.337,21.214 255.511,19.416 C253.685,17.618 252.772,15.445 252.772,12.899 C252.772,10.409 253.685,8.265 255.511,6.466 C257.337,4.669 259.467,3.769 261.903,3.769 C264.448,3.769 266.620,4.654 268.419,6.425 C270.217,8.197 271.117,10.355 271.117,12.899 C271.117,15.445 270.204,17.618 268.378,19.416 C266.551,21.214 264.393,22.113 261.903,22.113 ZM222.188,53.407 L211.314,53.407 L200.274,100.141 C199.388,103.627 198.946,106.117 198.946,107.611 C198.946,109.770 199.859,110.849 201.685,110.849 C206.112,110.849 210.982,104.208 216.295,90.927 L219.698,90.927 C217.042,99.283 213.610,105.633 209.405,109.977 C205.199,114.322 200.689,116.493 195.875,116.493 C188.072,116.493 184.171,112.509 184.171,104.540 C184.171,102.272 184.835,98.260 186.163,92.504 L195.377,53.407 L184.503,53.407 L185.333,49.174 L196.539,49.174 L200.274,33.153 C205.919,33.099 211.258,32.296 216.295,30.746 L212.393,49.174 L223.101,49.174 L222.188,53.407 ZM170.616,67.685 C168.624,67.685 166.852,67.008 165.304,65.651 C163.754,64.296 162.979,62.428 162.979,60.048 C162.979,57.835 163.837,55.787 165.553,53.905 C166.105,53.353 166.383,52.716 166.383,51.996 C166.383,51.222 164.694,50.834 161.319,50.834 C157.721,50.834 154.498,52.357 151.649,55.399 C148.798,58.443 145.949,66.011 143.099,78.102 C140.248,90.194 138.824,97.816 138.824,100.971 C138.824,104.403 139.737,107.225 141.563,109.437 C143.390,111.651 145.658,112.758 148.370,112.758 C156.061,112.758 163.532,106.561 170.782,94.164 L174.518,94.164 C167.213,109.051 158.053,116.493 147.042,116.493 C139.792,116.493 134.037,113.602 129.776,107.819 C125.514,102.037 123.385,95.465 123.385,88.104 C123.385,78.144 127.258,68.819 135.006,60.131 C142.753,51.444 152.243,47.099 163.478,47.099 C167.794,47.099 171.405,48.302 174.310,50.709 C177.215,53.117 178.668,55.814 178.668,58.803 C178.668,61.515 177.851,63.673 176.219,65.277 C174.586,66.883 172.719,67.685 170.616,67.685 ZM113.551,114.418 L61.837,114.418 L62.584,110.185 L79.186,110.185 L82.755,77.563 L47.394,77.563 L20.914,110.185 L38.761,110.185 L37.931,114.418 L0.826,114.418 L1.656,110.185 L15.270,110.185 L104.337,0.531 L108.487,0.531 L98.277,110.185 L114.381,110.185 L113.551,114.418 ZM86.324,28.920 L50.797,73.246 L82.755,73.246 L86.656,29.252 L86.324,28.920 Z"/>
<path fill="url(#PSgrad_0)"
 d="M516.438,58.471 C515.303,59.744 514.044,60.380 512.661,60.380 C511.775,60.380 510.820,60.035 509.797,59.342 C508.773,58.651 508.040,58.305 507.597,58.305 C505.494,58.305 503.004,61.874 500.127,69.013 L485.683,104.872 C480.979,116.382 474.256,128.156 465.513,140.192 C456.768,152.228 446.724,158.246 435.381,158.246 C431.950,158.246 429.391,157.458 427.702,155.880 C426.015,154.303 425.171,152.546 425.171,150.609 C425.171,149.004 425.725,147.648 426.831,146.542 C427.939,145.434 429.404,144.882 431.230,144.882 C434.994,144.882 437.622,146.679 439.116,150.277 C440.168,152.546 441.246,153.681 442.353,153.681 C444.898,153.681 449.187,151.259 455.220,146.417 C461.251,141.574 467.725,132.209 474.643,118.319 L460.698,67.851 C459.370,62.982 458.387,59.869 457.751,58.512 C457.114,57.157 456.160,56.479 454.888,56.479 C451.788,56.479 448.218,62.318 444.180,73.993 L440.610,73.993 C443.377,65.028 446.697,58.305 450.571,53.822 C454.444,49.340 458.428,47.099 462.524,47.099 C465.235,47.099 467.601,48.067 469.621,50.004 C471.641,51.942 473.591,56.313 475.473,63.119 L485.019,97.899 L485.351,97.899 C486.513,94.247 489.570,86.099 494.524,73.454 C499.476,60.809 502.893,53.255 504.775,50.792 C506.656,48.331 508.953,47.099 511.665,47.099 C515.981,47.099 518.139,49.202 518.139,53.407 C518.139,55.511 517.571,57.198 516.438,58.471 ZM440.988,53.407 L430.114,53.407 L419.074,100.141 C418.188,103.627 417.746,106.117 417.746,107.611 C417.746,109.770 418.659,110.849 420.485,110.849 C424.912,110.849 429.782,104.208 435.095,90.927 L438.498,90.927 C435.842,99.283 432.410,105.633 428.205,109.977 C423.999,114.322 419.489,116.493 414.675,116.493 C406.872,116.493 402.971,112.509 402.971,104.540 C402.971,102.272 403.635,98.260 404.963,92.504 L414.177,53.407 L403.303,53.407 L404.133,49.174 L415.339,49.174 L419.074,33.153 C424.719,33.099 430.058,32.296 435.095,30.746 L431.193,49.174 L441.901,49.174 L440.988,53.407 ZM367.537,116.493 C360.233,116.493 356.580,112.675 356.580,105.038 C356.580,102.714 356.912,100.252 357.576,97.650 C358.240,95.050 358.766,92.919 359.154,91.259 L368.367,53.407 L352.679,53.407 L353.592,49.174 L363.221,49.174 C371.134,49.174 378.577,48.649 385.550,47.597 L373.099,98.813 C372.213,103.019 371.771,105.731 371.771,106.947 C371.771,108.995 372.794,110.019 374.842,110.019 C377.387,110.019 380.333,108.179 383.682,104.499 C387.030,100.819 390.309,95.355 393.519,88.104 L397.254,88.104 C390.004,107.030 380.099,116.493 367.537,116.493 ZM384.803,22.113 C382.367,22.113 380.237,21.214 378.411,19.416 C376.585,17.618 375.672,15.445 375.672,12.899 C375.672,10.409 376.585,8.265 378.411,6.466 C380.237,4.669 382.367,3.769 384.803,3.769 C387.348,3.769 389.520,4.654 391.319,6.425 C393.117,8.197 394.017,10.355 394.017,12.899 C394.017,15.445 393.104,17.618 391.278,19.416 C389.451,21.214 387.293,22.113 384.803,22.113 ZM302.483,116.493 C297.779,116.493 293.877,115.082 290.779,112.260 C287.679,109.437 286.130,106.007 286.130,101.967 C286.130,99.145 286.766,95.243 288.039,90.263 L294.514,63.949 C294.735,63.729 295.039,62.428 295.427,60.048 C295.814,57.669 296.008,56.368 296.008,56.146 C296.008,54.432 295.233,53.573 293.684,53.573 C289.920,53.573 285.438,59.633 280.237,71.752 L276.501,71.752 C282.644,55.316 290.613,47.099 300.408,47.099 C307.601,47.099 311.199,50.613 311.199,57.641 C311.199,59.301 310.396,63.368 308.791,69.843 L301.985,97.733 C301.099,101.386 300.657,104.015 300.657,105.619 C300.657,107.169 301.209,108.483 302.317,109.562 C303.423,110.641 304.834,111.181 306.550,111.181 C311.365,111.181 316.345,108.400 321.492,102.838 C326.638,97.277 330.567,90.429 333.279,82.294 C335.989,74.159 337.346,68.432 337.346,65.111 C337.346,63.673 336.321,62.760 334.275,62.372 C328.630,61.488 325.808,58.886 325.808,54.569 C325.808,52.577 326.472,50.834 327.800,49.340 C329.128,47.846 331.009,47.099 333.445,47.099 C338.978,47.099 341.746,50.946 341.746,58.637 C341.746,71.586 337.954,84.466 330.373,97.277 C322.791,110.089 313.494,116.493 302.483,116.493 ZM244.637,116.493 C237.333,116.493 233.680,112.675 233.680,105.038 C233.680,102.714 234.012,100.252 234.676,97.650 C235.340,95.050 235.866,92.919 236.254,91.259 L245.467,53.407 L229.779,53.407 L230.692,49.174 L240.321,49.174 C248.234,49.174 255.677,48.649 262.650,47.597 L250.199,98.813 C249.313,103.019 248.871,105.731 248.871,106.947 C248.871,108.995 249.894,110.019 251.942,110.019 C254.487,110.019 257.433,108.179 260.782,104.499 C264.130,100.819 267.409,95.355 270.619,88.104 L274.354,88.104 C267.104,107.030 257.199,116.493 244.637,116.493 ZM261.903,22.113 C259.467,22.113 257.337,21.214 255.511,19.416 C253.685,17.618 252.772,15.445 252.772,12.899 C252.772,10.409 253.685,8.265 255.511,6.466 C257.337,4.669 259.467,3.769 261.903,3.769 C264.448,3.769 266.620,4.654 268.419,6.425 C270.217,8.197 271.117,10.355 271.117,12.899 C271.117,15.445 270.204,17.618 268.378,19.416 C266.551,21.214 264.393,22.113 261.903,22.113 ZM222.188,53.407 L211.314,53.407 L200.274,100.141 C199.388,103.627 198.946,106.117 198.946,107.611 C198.946,109.770 199.859,110.849 201.685,110.849 C206.112,110.849 210.982,104.208 216.295,90.927 L219.698,90.927 C217.042,99.283 213.610,105.633 209.405,109.977 C205.199,114.322 200.689,116.493 195.875,116.493 C188.072,116.493 184.171,112.509 184.171,104.540 C184.171,102.272 184.835,98.260 186.163,92.504 L195.377,53.407 L184.503,53.407 L185.333,49.174 L196.539,49.174 L200.274,33.153 C205.919,33.099 211.258,32.296 216.295,30.746 L212.393,49.174 L223.101,49.174 L222.188,53.407 ZM170.616,67.685 C168.624,67.685 166.852,67.008 165.304,65.651 C163.754,64.296 162.979,62.428 162.979,60.048 C162.979,57.835 163.837,55.787 165.553,53.905 C166.105,53.353 166.383,52.716 166.383,51.996 C166.383,51.222 164.694,50.834 161.319,50.834 C157.721,50.834 154.498,52.357 151.649,55.399 C148.798,58.443 145.949,66.011 143.099,78.102 C140.248,90.194 138.824,97.816 138.824,100.971 C138.824,104.403 139.737,107.225 141.563,109.437 C143.390,111.651 145.658,112.758 148.370,112.758 C156.061,112.758 163.532,106.561 170.782,94.164 L174.518,94.164 C167.213,109.051 158.053,116.493 147.042,116.493 C139.792,116.493 134.037,113.602 129.776,107.819 C125.514,102.037 123.385,95.465 123.385,88.104 C123.385,78.144 127.258,68.819 135.006,60.131 C142.753,51.444 152.243,47.099 163.478,47.099 C167.794,47.099 171.405,48.302 174.310,50.709 C177.215,53.117 178.668,55.814 178.668,58.803 C178.668,61.515 177.851,63.673 176.219,65.277 C174.586,66.883 172.719,67.685 170.616,67.685 ZM113.551,114.418 L61.837,114.418 L62.584,110.185 L79.186,110.185 L82.755,77.563 L47.394,77.563 L20.914,110.185 L38.761,110.185 L37.931,114.418 L0.826,114.418 L1.656,110.185 L15.270,110.185 L104.337,0.531 L108.487,0.531 L98.277,110.185 L114.381,110.185 L113.551,114.418 ZM86.324,28.920 L50.797,73.246 L82.755,73.246 L86.656,29.252 L86.324,28.920 Z"/>
</svg>