<svg xmlns="http://www.w3.org/2000/svg" xmlns:xlink="http://www.w3.org/1999/xlink" viewBox="0 0 517.31 157.72" width="518" height="158">
<defs>
<style>.cls-1{fill:url(#Gradation_7);}</style>
<linearGradient id="Gradation_7" x1="-38.27" y1="497.19" x2="-37.27" y2="497.19" gradientTransform="matrix(517.31, 0, 0, -157.71, 19798.22, 78493.47)" gradientUnits="userSpaceOnUse">
<stop offset="0.01" stop-color="#00b7b8"/>
<stop offset="0.65" stop-color="#5fd585"/>
<stop offset="1" stop-color="#bef351"/>
</linearGradient>
</defs>
<path class="cls-1" d="M515.61,57.94a5,5,0,0,1-3.77,1.91,5.21,5.21,0,0,1-2.87-1,5,5,0,0,0-2.2-1q-3.15,0-7.47,10.71l-14.44,35.86a170.37,170.37,0,0,1-20.17,35.32q-13.12,18.06-30.13,18.06-5.16,0-7.68-2.37a7.09,7.09,0,0,1-2.54-5.27A5.56,5.56,0,0,1,426,146a6,6,0,0,1,4.4-1.66q5.66,0,7.89,5.4,1.57,3.41,3.24,3.4,3.81,0,12.86-7.26t19.43-28.1L459.87,67.32A76.7,76.7,0,0,0,456.93,58a3.08,3.08,0,0,0-2.87-2q-4.65,0-10.71,17.51h-3.57q4.16-13.44,10-20.17t11.95-6.72a10,10,0,0,1,7.1,2.9q3,2.91,5.85,13.12l9.54,34.78h.34q1.74-5.48,9.17-24.45T504,50.26a8.42,8.42,0,0,1,6.89-3.69q6.48,0,6.47,6.31A7.34,7.34,0,0,1,515.61,57.94Zm-75.45-5.06H429.29l-11,46.73a35,35,0,0,0-1.33,7.47c0,2.16.91,3.24,2.74,3.24q6.64,0,14.61-19.92h3.4q-4,12.52-10.29,19T413.85,116q-11.7,0-11.7-11.95,0-3.41,2-12l9.21-39.09H402.48l.83-4.24h11.2l3.74-16a55.91,55.91,0,0,0,16-2.4l-3.9,18.42h10.71ZM366.71,116q-10.95,0-11-11.45a30.08,30.08,0,0,1,1-7.39q1-3.9,1.58-6.39l9.21-37.85H351.85l.92-4.24h9.63a150,150,0,0,0,22.32-1.57L372.27,98.28a54.14,54.14,0,0,0-1.33,8.14c0,2,1,3.07,3.08,3.07q3.81,0,8.84-5.52t9.83-16.4h3.74Q385.56,116,366.71,116ZM384,21.58a8.83,8.83,0,0,1-6.39-2.69,8.82,8.82,0,0,1-2.74-6.52,8.68,8.68,0,0,1,2.74-6.43A8.8,8.8,0,0,1,384,3.24a8.94,8.94,0,0,1,6.51,2.65,8.76,8.76,0,0,1,2.7,6.48,8.82,8.82,0,0,1-2.74,6.52A8.94,8.94,0,0,1,384,21.58ZM301.66,116A16.73,16.73,0,0,1,290,111.73a13.4,13.4,0,0,1-4.65-10.29,50.78,50.78,0,0,1,1.91-11.71l6.48-26.31c.22-.22.52-1.52.91-3.9s.58-3.68.58-3.91c0-1.71-.77-2.57-2.32-2.57q-5.66,0-13.45,18.18h-3.73q9.21-24.64,23.9-24.65,10.8,0,10.79,10.54,0,2.49-2.41,12.2l-6.8,27.89a38.22,38.22,0,0,0-1.33,7.89,5.28,5.28,0,0,0,1.66,3.94,5.82,5.82,0,0,0,4.23,1.62q7.23,0,14.95-8.34a55.73,55.73,0,0,0,11.78-20.55q4.07-12.2,4.07-17.18c0-1.44-1-2.35-3.07-2.74Q325,60.52,325,54a7.66,7.66,0,0,1,2-5.23,7.18,7.18,0,0,1,5.65-2.24q8.29,0,8.3,11.54,0,19.41-11.37,38.64T301.66,116Zm-57.85,0q-11,0-11-11.45a30.08,30.08,0,0,1,1-7.39q1-3.9,1.58-6.39l9.21-37.85H229l.92-4.24h9.62a150,150,0,0,0,22.33-1.57L249.37,98.28a53.6,53.6,0,0,0-1.32,8.14c0,2,1,3.07,3.07,3.07q3.81,0,8.84-5.52t9.83-16.4h3.74Q262.65,116,243.81,116Zm17.27-94.38a8.83,8.83,0,0,1-6.39-2.69A8.82,8.82,0,0,1,252,12.37a8.68,8.68,0,0,1,2.74-6.43,8.8,8.8,0,0,1,6.39-2.7,8.94,8.94,0,0,1,6.51,2.65,8.76,8.76,0,0,1,2.7,6.48,8.82,8.82,0,0,1-2.74,6.52A8.94,8.94,0,0,1,261.08,21.58Zm-39.72,31.3H210.49l-11,46.73a35,35,0,0,0-1.33,7.47c0,2.16.91,3.24,2.74,3.24q6.64,0,14.61-19.92h3.4q-4,12.52-10.29,19T195.05,116q-11.7,0-11.7-11.95,0-3.41,2-12l9.21-39.09H183.68l.83-4.24h11.2l3.74-16a55.91,55.91,0,0,0,16-2.4l-3.9,18.42h10.7ZM169.79,67.15a7.81,7.81,0,0,1-5.31-2,7.06,7.06,0,0,1-2.33-5.6,9,9,0,0,1,2.58-6.15,2.63,2.63,0,0,0,.83-1.91q0-1.16-5.07-1.16-5.4,0-9.67,4.57t-8.55,22.7Q138,95.71,138,100.44a12.87,12.87,0,0,0,2.74,8.47,8.48,8.48,0,0,0,6.8,3.32q11.55,0,22.42-18.6h3.73Q162.74,116,146.22,116A20.35,20.35,0,0,1,129,107.29a32.4,32.4,0,0,1-6.39-19.72q0-14.94,11.62-28t28.47-13a16.37,16.37,0,0,1,10.83,3.61q4.36,3.62,4.36,8.09a8.7,8.7,0,0,1-2.45,6.48A7.78,7.78,0,0,1,169.79,67.15Zm-57.06,46.74H61l.75-4.24h16.6L81.93,77H46.57L20.09,109.65H37.94l-.84,4.24H0l.83-4.24H14.44L103.51,0h4.15L97.45,109.65h16.1ZM85.5,28.39,50,72.72h32l3.9-44Z"/>
</svg>