<svg  xmlns="http://www.w3.org/2000/svg" xmlns:xlink="http://www.w3.org/1999/xlink" width="484" height="117" viewBox="0 0 484 117">
<defs>
<linearGradient id="PSgrad_0" x1="0%" x2="100%" y1="0%" y2="0%">
  <stop offset="1%" stop-color="rgb(0,183,184)" stop-opacity="1" />
  <stop offset="65%" stop-color="rgb(95,213,133)" stop-opacity="1" />
  <stop offset="100%" stop-color="rgb(190,243,81)" stop-opacity="1" />
</linearGradient>
</defs>
<path fill-rule="evenodd"  fill="rgb(6, 182, 181)"
 d="M483.101,49.174 L482.188,53.407 L471.314,53.407 L460.274,100.141 C459.388,103.627 458.946,106.117 458.946,107.611 C458.946,109.770 459.859,110.849 461.685,110.849 C466.112,110.849 470.982,104.208 476.295,90.927 L479.698,90.927 C477.042,99.283 473.610,105.633 469.405,109.977 C465.199,114.322 460.689,116.493 455.875,116.493 C448.072,116.493 444.171,112.509 444.171,104.540 C444.171,102.272 444.835,98.260 446.163,92.504 L455.377,53.407 L444.503,53.407 L445.333,49.174 L456.539,49.174 L460.274,33.153 C465.919,33.099 471.258,32.296 476.295,30.746 L472.393,49.174 L483.101,49.174 ZM430.616,67.685 C428.624,67.685 426.852,67.008 425.304,65.651 C423.754,64.296 422.979,62.428 422.979,60.048 C422.979,57.835 423.837,55.787 425.553,53.905 C426.105,53.353 426.383,52.716 426.383,51.996 C426.383,51.222 424.694,50.834 421.319,50.834 C417.721,50.834 414.498,52.357 411.649,55.399 C408.798,58.443 405.949,66.011 403.099,78.102 C400.248,90.194 398.824,97.816 398.824,100.971 C398.824,104.403 399.737,107.225 401.563,109.437 C403.390,111.651 405.658,112.758 408.370,112.758 C416.061,112.758 423.532,106.561 430.782,94.164 L434.518,94.164 C427.213,109.051 418.053,116.493 407.042,116.493 C399.792,116.493 394.037,113.602 389.776,107.819 C385.514,102.037 383.385,95.465 383.385,88.104 C383.385,78.144 387.258,68.819 395.006,60.131 C402.753,51.444 412.243,47.099 423.478,47.099 C427.794,47.099 431.405,48.302 434.310,50.709 C437.215,53.117 438.668,55.814 438.668,58.803 C438.668,61.515 437.851,63.673 436.219,65.277 C434.586,66.883 432.719,67.685 430.616,67.685 ZM354.649,116.493 C347.786,116.493 344.078,111.375 343.526,101.137 L343.194,101.137 C338.268,111.375 331.406,116.493 322.608,116.493 C317.184,116.493 312.522,113.948 308.621,108.856 C304.719,103.766 302.769,97.567 302.769,90.263 C302.769,78.863 306.766,68.819 314.763,60.131 C322.759,51.444 330.714,47.099 338.628,47.099 C346.153,47.099 350.691,51.222 352.241,59.467 L352.573,59.467 L354.981,48.593 L370.752,48.593 L359.546,95.907 C358.494,100.169 357.969,103.517 357.969,105.951 C357.969,108.221 358.770,109.354 360.376,109.354 C361.704,109.354 363.585,107.764 366.021,104.582 C368.455,101.400 370.945,96.683 373.491,90.429 L376.895,90.429 C373.906,99.394 370.392,105.980 366.353,110.185 C362.313,114.391 358.411,116.493 354.649,116.493 ZM347.053,55.150 C345.199,52.274 342.612,50.834 339.292,50.834 C335.584,50.834 332.569,52.550 330.244,55.980 C327.920,59.412 325.250,67.477 322.234,80.177 C319.217,92.877 317.710,100.833 317.710,104.042 C317.710,109.466 319.813,112.177 324.019,112.177 C327.061,112.177 330.174,110.987 333.357,108.607 C336.539,106.229 340.081,100.611 343.982,91.757 C347.883,82.904 349.834,74.298 349.834,65.941 C349.834,61.625 348.907,58.028 347.053,55.150 ZM296.838,53.407 L285.964,53.407 L274.924,100.141 C274.038,103.627 273.596,106.117 273.596,107.611 C273.596,109.770 274.509,110.849 276.335,110.849 C280.762,110.849 285.632,104.208 290.945,90.927 L294.348,90.927 C291.692,99.283 288.260,105.633 284.055,109.977 C279.849,114.322 275.339,116.493 270.525,116.493 C262.722,116.493 258.821,112.509 258.821,104.540 C258.821,102.272 259.485,98.260 260.813,92.504 L270.027,53.407 L259.153,53.407 L259.983,49.174 L271.189,49.174 L274.924,33.153 C280.569,33.099 285.908,32.296 290.945,30.746 L287.043,49.174 L297.751,49.174 L296.838,53.407 ZM226.646,115.746 C219.064,115.746 215.274,112.177 215.274,105.038 C215.274,102.604 215.882,98.924 217.100,93.998 L224.073,66.190 C224.127,65.858 224.349,64.974 224.737,63.534 C225.123,62.096 225.318,60.574 225.318,58.969 C225.318,55.262 223.824,53.407 220.836,53.407 C217.570,53.407 212.936,56.202 206.932,61.791 C200.927,67.381 196.099,77.950 192.447,93.500 L187.549,114.418 L171.861,114.418 L186.138,53.407 L171.861,53.407 L172.774,49.174 L183.980,49.174 C191.671,49.174 198.119,48.704 203.321,47.763 L199.087,65.775 L199.420,66.107 C208.771,53.436 218.400,47.099 228.306,47.099 C231.959,47.099 234.974,48.192 237.354,50.377 C239.733,52.564 240.923,55.482 240.923,59.135 C240.923,60.629 240.480,63.258 239.595,67.021 L232.042,97.733 C231.266,100.943 230.879,103.323 230.879,104.872 C230.879,107.584 231.793,108.939 233.619,108.939 C238.543,108.939 243.524,102.880 248.560,90.761 L252.462,90.761 C249.251,99.449 245.336,105.785 240.716,109.770 C236.095,113.754 231.405,115.746 226.646,115.746 ZM123.242,116.493 C115.937,116.493 110.085,113.810 105.686,108.441 C101.286,103.074 99.087,96.239 99.087,87.938 C99.087,77.037 102.960,67.506 110.708,59.342 C118.455,51.180 127.088,47.099 136.606,47.099 C144.243,47.099 150.149,49.838 154.328,55.316 C158.506,60.795 160.596,67.353 160.596,74.989 C160.596,85.670 156.653,95.257 148.767,103.751 C140.881,112.247 132.373,116.493 123.242,116.493 ZM142.873,53.739 C141.240,51.803 138.930,50.834 135.942,50.834 C131.460,50.834 128.235,52.660 126.272,56.313 C124.307,59.965 121.831,67.367 118.843,78.517 C115.854,89.669 114.360,97.789 114.360,102.880 C114.360,106.090 115.259,108.539 117.058,110.226 C118.856,111.915 120.972,112.758 123.408,112.758 C130.325,112.758 135.706,105.218 139.553,90.138 C143.399,75.059 145.322,65.416 145.322,61.210 C145.322,58.167 144.505,55.677 142.873,53.739 ZM86.515,35.727 C85.851,15.086 78.463,4.765 64.352,4.765 C55.607,4.765 47.985,8.998 41.483,17.465 C34.980,25.932 29.999,37.249 26.542,51.415 C23.082,65.582 21.354,77.562 21.354,87.357 C21.354,95.160 23.622,101.344 28.160,105.910 C32.697,110.475 38.536,112.758 45.675,112.758 C61.391,112.758 74.533,102.604 85.104,82.294 L89.005,82.294 L81.036,114.418 L77.301,114.418 C76.193,112.648 74.616,110.434 72.569,107.777 C62.885,113.920 53.422,116.991 44.181,116.991 C32.172,116.991 21.852,112.882 13.219,104.665 C4.586,96.447 0.270,86.224 0.270,73.993 C0.270,61.376 3.507,49.410 9.981,38.092 C16.456,26.776 24.881,17.687 35.257,10.824 C45.633,3.963 55.441,0.531 64.684,0.531 C74.146,0.531 81.423,4.156 86.515,11.405 C88.893,9.525 91.329,7.255 93.819,4.599 L97.223,4.599 L90.914,35.727 L86.515,35.727 Z"/>
<path fill="url(#PSgrad_0)"
 d="M483.101,49.174 L482.188,53.407 L471.314,53.407 L460.274,100.141 C459.388,103.627 458.946,106.117 458.946,107.611 C458.946,109.770 459.859,110.849 461.685,110.849 C466.112,110.849 470.982,104.208 476.295,90.927 L479.698,90.927 C477.042,99.283 473.610,105.633 469.405,109.977 C465.199,114.322 460.689,116.493 455.875,116.493 C448.072,116.493 444.171,112.509 444.171,104.540 C444.171,102.272 444.835,98.260 446.163,92.504 L455.377,53.407 L444.503,53.407 L445.333,49.174 L456.539,49.174 L460.274,33.153 C465.919,33.099 471.258,32.296 476.295,30.746 L472.393,49.174 L483.101,49.174 ZM430.616,67.685 C428.624,67.685 426.852,67.008 425.304,65.651 C423.754,64.296 422.979,62.428 422.979,60.048 C422.979,57.835 423.837,55.787 425.553,53.905 C426.105,53.353 426.383,52.716 426.383,51.996 C426.383,51.222 424.694,50.834 421.319,50.834 C417.721,50.834 414.498,52.357 411.649,55.399 C408.798,58.443 405.949,66.011 403.099,78.102 C400.248,90.194 398.824,97.816 398.824,100.971 C398.824,104.403 399.737,107.225 401.563,109.437 C403.390,111.651 405.658,112.758 408.370,112.758 C416.061,112.758 423.532,106.561 430.782,94.164 L434.518,94.164 C427.213,109.051 418.053,116.493 407.042,116.493 C399.792,116.493 394.037,113.602 389.776,107.819 C385.514,102.037 383.385,95.465 383.385,88.104 C383.385,78.144 387.258,68.819 395.006,60.131 C402.753,51.444 412.243,47.099 423.478,47.099 C427.794,47.099 431.405,48.302 434.310,50.709 C437.215,53.117 438.668,55.814 438.668,58.803 C438.668,61.515 437.851,63.673 436.219,65.277 C434.586,66.883 432.719,67.685 430.616,67.685 ZM354.649,116.493 C347.786,116.493 344.078,111.375 343.526,101.137 L343.194,101.137 C338.268,111.375 331.406,116.493 322.608,116.493 C317.184,116.493 312.522,113.948 308.621,108.856 C304.719,103.766 302.769,97.567 302.769,90.263 C302.769,78.863 306.766,68.819 314.763,60.131 C322.759,51.444 330.714,47.099 338.628,47.099 C346.153,47.099 350.691,51.222 352.241,59.467 L352.573,59.467 L354.981,48.593 L370.752,48.593 L359.546,95.907 C358.494,100.169 357.969,103.517 357.969,105.951 C357.969,108.221 358.770,109.354 360.376,109.354 C361.704,109.354 363.585,107.764 366.021,104.582 C368.455,101.400 370.945,96.683 373.491,90.429 L376.895,90.429 C373.906,99.394 370.392,105.980 366.353,110.185 C362.313,114.391 358.411,116.493 354.649,116.493 ZM347.053,55.150 C345.199,52.274 342.612,50.834 339.292,50.834 C335.584,50.834 332.569,52.550 330.244,55.980 C327.920,59.412 325.250,67.477 322.234,80.177 C319.217,92.877 317.710,100.833 317.710,104.042 C317.710,109.466 319.813,112.177 324.019,112.177 C327.061,112.177 330.174,110.987 333.357,108.607 C336.539,106.229 340.081,100.611 343.982,91.757 C347.883,82.904 349.834,74.298 349.834,65.941 C349.834,61.625 348.907,58.028 347.053,55.150 ZM296.838,53.407 L285.964,53.407 L274.924,100.141 C274.038,103.627 273.596,106.117 273.596,107.611 C273.596,109.770 274.509,110.849 276.335,110.849 C280.762,110.849 285.632,104.208 290.945,90.927 L294.348,90.927 C291.692,99.283 288.260,105.633 284.055,109.977 C279.849,114.322 275.339,116.493 270.525,116.493 C262.722,116.493 258.821,112.509 258.821,104.540 C258.821,102.272 259.485,98.260 260.813,92.504 L270.027,53.407 L259.153,53.407 L259.983,49.174 L271.189,49.174 L274.924,33.153 C280.569,33.099 285.908,32.296 290.945,30.746 L287.043,49.174 L297.751,49.174 L296.838,53.407 ZM226.646,115.746 C219.064,115.746 215.274,112.177 215.274,105.038 C215.274,102.604 215.882,98.924 217.100,93.998 L224.073,66.190 C224.127,65.858 224.349,64.974 224.737,63.534 C225.123,62.096 225.318,60.574 225.318,58.969 C225.318,55.262 223.824,53.407 220.836,53.407 C217.570,53.407 212.936,56.202 206.932,61.791 C200.927,67.381 196.099,77.950 192.447,93.500 L187.549,114.418 L171.861,114.418 L186.138,53.407 L171.861,53.407 L172.774,49.174 L183.980,49.174 C191.671,49.174 198.119,48.704 203.321,47.763 L199.087,65.775 L199.420,66.107 C208.771,53.436 218.400,47.099 228.306,47.099 C231.959,47.099 234.974,48.192 237.354,50.377 C239.733,52.564 240.923,55.482 240.923,59.135 C240.923,60.629 240.480,63.258 239.595,67.021 L232.042,97.733 C231.266,100.943 230.879,103.323 230.879,104.872 C230.879,107.584 231.793,108.939 233.619,108.939 C238.543,108.939 243.524,102.880 248.560,90.761 L252.462,90.761 C249.251,99.449 245.336,105.785 240.716,109.770 C236.095,113.754 231.405,115.746 226.646,115.746 ZM123.242,116.493 C115.937,116.493 110.085,113.810 105.686,108.441 C101.286,103.074 99.087,96.239 99.087,87.938 C99.087,77.037 102.960,67.506 110.708,59.342 C118.455,51.180 127.088,47.099 136.606,47.099 C144.243,47.099 150.149,49.838 154.328,55.316 C158.506,60.795 160.596,67.353 160.596,74.989 C160.596,85.670 156.653,95.257 148.767,103.751 C140.881,112.247 132.373,116.493 123.242,116.493 ZM142.873,53.739 C141.240,51.803 138.930,50.834 135.942,50.834 C131.460,50.834 128.235,52.660 126.272,56.313 C124.307,59.965 121.831,67.367 118.843,78.517 C115.854,89.669 114.360,97.789 114.360,102.880 C114.360,106.090 115.259,108.539 117.058,110.226 C118.856,111.915 120.972,112.758 123.408,112.758 C130.325,112.758 135.706,105.218 139.553,90.138 C143.399,75.059 145.322,65.416 145.322,61.210 C145.322,58.167 144.505,55.677 142.873,53.739 ZM86.515,35.727 C85.851,15.086 78.463,4.765 64.352,4.765 C55.607,4.765 47.985,8.998 41.483,17.465 C34.980,25.932 29.999,37.249 26.542,51.415 C23.082,65.582 21.354,77.562 21.354,87.357 C21.354,95.160 23.622,101.344 28.160,105.910 C32.697,110.475 38.536,112.758 45.675,112.758 C61.391,112.758 74.533,102.604 85.104,82.294 L89.005,82.294 L81.036,114.418 L77.301,114.418 C76.193,112.648 74.616,110.434 72.569,107.777 C62.885,113.920 53.422,116.991 44.181,116.991 C32.172,116.991 21.852,112.882 13.219,104.665 C4.586,96.447 0.270,86.224 0.270,73.993 C0.270,61.376 3.507,49.410 9.981,38.092 C16.456,26.776 24.881,17.687 35.257,10.824 C45.633,3.963 55.441,0.531 64.684,0.531 C74.146,0.531 81.423,4.156 86.515,11.405 C88.893,9.525 91.329,7.255 93.819,4.599 L97.223,4.599 L90.914,35.727 L86.515,35.727 Z"/>
</svg>