<svg xmlns="http://www.w3.org/2000/svg" xmlns:xlink="http://www.w3.org/1999/xlink" viewBox="0 0 482.83 116.46" width="483" height="117">
<defs>
<style>.cls-1{fill:url(#Gradation_7);}</style>
<linearGradient id="Gradation_7" x1="-55.47" y1="475.62" x2="-54.47" y2="475.62" gradientTransform="matrix(482.83, 0, 0, -116.46, 26782.74, 55448.94)" gradientUnits="userSpaceOnUse">
<stop offset="0.01" stop-color="#1aadad"/>
<stop offset="0.65" stop-color="#69bd7e"/>
<stop offset="1" stop-color="#b7d55b"/>
</linearGradient>
</defs>
<path class="cls-1" d="M482.83,48.64l-.91,4.24H471L460,99.61a35.47,35.47,0,0,0-1.32,7.47q0,3.24,2.73,3.24,6.64,0,14.62-19.92h3.4q-4,12.52-10.3,19T455.6,116q-11.7,0-11.7-11.95,0-3.41,2-12l9.22-39.09H444.23l.83-4.24h11.21l3.73-16a55.92,55.92,0,0,0,16-2.4l-3.91,18.42ZM430.35,67.15a7.82,7.82,0,0,1-5.32-2,7.05,7.05,0,0,1-2.32-5.6,9,9,0,0,1,2.57-6.15,2.59,2.59,0,0,0,.83-1.91q0-1.16-5.06-1.16-5.4,0-9.67,4.57t-8.55,22.7q-4.27,18.14-4.28,22.87a12.92,12.92,0,0,0,2.74,8.47,8.51,8.51,0,0,0,6.81,3.32q11.53,0,22.41-18.6h3.74Q423.29,116,406.77,116a20.33,20.33,0,0,1-17.26-8.67,32.34,32.34,0,0,1-6.39-19.72q0-14.94,11.62-28t28.47-13A16.41,16.41,0,0,1,434,50.18q4.35,3.62,4.36,8.09A8.7,8.7,0,0,1,436,64.75,7.78,7.78,0,0,1,430.35,67.15Zm-76,48.81q-10.29,0-11.12-15.35h-.34Q335.54,116,322.34,116q-8.14,0-14-7.63t-5.85-18.6q0-17.1,12-30.13t23.87-13q11.28,0,13.61,12.37h.33l2.41-10.88h15.77l-11.2,47.32a44.34,44.34,0,0,0-1.58,10c0,2.27.8,3.4,2.41,3.4q2,0,5.64-4.77t7.47-14.15h3.4q-4.47,13.44-10.54,19.75T354.38,116Zm-7.6-61.34A8.74,8.74,0,0,0,339,50.3q-5.56,0-9,5.15t-8,24.2q-4.51,19-4.52,23.86,0,8.14,6.31,8.14,4.56,0,9.34-3.57t10.62-16.85a63.86,63.86,0,0,0,5.85-25.82A19.49,19.49,0,0,0,346.78,54.62Zm-50.21-1.74H285.69l-11,46.73a35.47,35.47,0,0,0-1.32,7.47q0,3.24,2.73,3.24,6.65,0,14.62-19.92h3.4q-4,12.52-10.3,19T270.25,116q-11.7,0-11.7-11.95,0-3.41,2-12l9.22-39.09H258.88l.83-4.24h11.21l3.73-16a55.92,55.92,0,0,0,16-2.4l-3.91,18.42h10.71Zm-70.19,62.34q-11.38,0-11.38-10.71a50.82,50.82,0,0,1,1.83-11l7-27.81c.06-.33.28-1.22.67-2.66a17.75,17.75,0,0,0,.58-4.56c0-3.71-1.5-5.56-4.48-5.56q-4.9,0-13.91,8.38T192.18,93l-4.9,20.92H171.59l14.28-61H171.59l.91-4.24h11.21a111.29,111.29,0,0,0,19.34-1.41l-4.23,18,.33.34q14-19,28.89-19a12.82,12.82,0,0,1,9,3.28,11.29,11.29,0,0,1,3.57,8.75,41.06,41.06,0,0,1-1.32,7.89L231.77,97.2a34.24,34.24,0,0,0-1.16,7.14q0,4.06,2.74,4.07,7.38,0,14.94-18.18h3.9q-4.81,13-11.74,19T226.38,115.22ZM123,116q-10.95,0-17.55-8t-6.6-20.5a40.22,40.22,0,0,1,11.62-28.6q11.63-12.24,25.9-12.24,11.44,0,17.72,8.22a31.45,31.45,0,0,1,6.27,19.67q0,16-11.83,28.76T123,116ZM142.6,53.21a8.55,8.55,0,0,0-6.93-2.91q-6.72,0-9.67,5.48T118.57,78q-4.48,16.73-4.48,24.36,0,4.82,2.7,7.34a9,9,0,0,0,6.35,2.54q10.37,0,16.14-22.62t5.77-28.93A11.17,11.17,0,0,0,142.6,53.21Zm-56.36-18q-1-31-22.16-31Q51,4.23,41.21,16.93t-14.94,34q-5.19,21.25-5.19,35.95,0,11.7,6.81,18.55t17.51,6.85q23.58,0,39.43-30.47h3.9l-8,32.13H77c-1.11-1.77-2.68-4-4.73-6.64q-14.53,9.21-28.39,9.21a43.32,43.32,0,0,1-31-12.33Q0,91.82,0,73.46a71.24,71.24,0,0,1,9.71-35.9A79.41,79.41,0,0,1,35,10.29Q50.55,0,64.41,0q14.2,0,21.83,10.87a67.92,67.92,0,0,0,7.31-6.8H97L90.64,35.2Z"/></svg>