<svg  xmlns="http://www.w3.org/2000/svg" xmlns:xlink="http://www.w3.org/1999/xlink" width="667" height="158" viewBox="0 0 667 158">
<defs>
<linearGradient id="PSgrad_0" x1="0%" x2="100%" y1="0%" y2="0%">
  <stop offset="1%" stop-color="rgb(0,183,184)" stop-opacity="1" />
  <stop offset="65%" stop-color="rgb(95,213,133)" stop-opacity="1" />
  <stop offset="100%" stop-color="rgb(190,243,81)" stop-opacity="1" />
</linearGradient>
</defs>
<path fill-rule="evenodd"  fill="rgb(6, 182, 181)"
 d="M659.812,76.936 C655.606,81.945 645.479,84.531 629.431,84.697 C627.162,94.880 626.028,100.940 626.028,102.876 C626.028,105.200 626.885,107.262 628.601,109.060 C630.316,110.859 632.752,111.758 635.906,111.758 C646.033,111.758 654.583,105.007 661.555,91.504 L665.125,91.504 C661.417,99.694 656.907,105.740 651.595,109.641 C646.282,113.542 640.831,115.493 635.242,115.493 C628.380,115.493 622.694,112.658 618.184,106.985 C613.673,101.313 611.419,94.741 611.419,87.271 C611.419,77.365 615.362,68.027 623.247,59.255 C631.133,50.485 639.475,46.099 648.274,46.099 C653.973,46.099 658.373,47.856 661.472,51.370 C664.571,54.884 666.121,58.744 666.121,62.949 C666.121,67.266 664.017,71.928 659.812,76.936 ZM647.444,49.834 C643.072,49.834 639.724,51.826 637.400,55.811 C635.076,59.795 632.696,68.179 630.262,80.962 C638.008,80.796 643.169,79.731 645.742,77.766 C648.316,75.802 650.404,72.634 652.010,68.262 C653.614,63.891 654.417,60.349 654.417,57.637 C654.417,52.436 652.093,49.834 647.444,49.834 ZM564.581,84.697 C562.312,94.880 561.178,100.940 561.178,102.876 C561.178,105.200 562.035,107.262 563.751,109.060 C565.466,110.859 567.902,111.758 571.056,111.758 C581.183,111.758 589.733,105.007 596.705,91.504 L600.275,91.504 C596.567,99.694 592.057,105.740 586.745,109.641 C581.432,113.542 575.981,115.493 570.392,115.493 C563.530,115.493 557.844,112.658 553.334,106.985 C548.823,101.313 546.569,94.741 546.569,87.271 C546.569,77.365 550.512,68.027 558.397,59.255 C566.283,50.485 574.625,46.099 583.424,46.099 C589.123,46.099 593.523,47.856 596.622,51.370 C599.721,54.884 601.271,58.744 601.271,62.949 C601.271,67.266 599.167,71.928 594.962,76.936 C590.756,81.945 580.629,84.531 564.581,84.697 ZM582.594,49.834 C578.222,49.834 574.874,51.826 572.550,55.811 C570.226,59.795 567.846,68.179 565.411,80.962 C573.158,80.796 578.319,79.731 580.892,77.766 C583.466,75.802 585.554,72.634 587.160,68.262 C588.764,63.891 589.567,60.349 589.567,57.637 C589.567,52.436 587.243,49.834 582.594,49.834 ZM559.363,20.947 C557.371,20.947 555.628,20.214 554.133,18.748 C552.639,17.282 551.892,15.580 551.892,13.643 C551.892,11.706 552.694,9.936 554.299,8.330 C555.904,6.726 556.707,5.840 556.707,5.674 C556.707,4.512 555.047,3.931 551.726,3.931 C544.255,3.931 538.929,7.971 535.747,16.050 C532.564,24.130 530.254,34.838 528.816,48.174 L540.852,48.174 L540.022,52.407 L528.318,52.407 L522.258,88.433 C520.266,100.165 518.245,109.711 516.199,117.070 C514.151,124.429 511.702,130.933 508.853,136.577 C506.002,142.222 503.125,146.497 500.220,149.402 C497.315,152.307 494.132,154.465 490.674,155.876 C487.216,157.288 484.048,157.993 481.170,157.993 C477.131,157.993 473.686,156.873 470.835,154.631 C467.986,152.390 466.560,149.692 466.560,146.538 C466.560,144.434 467.197,142.608 468.469,141.060 C469.743,139.510 471.652,138.735 474.197,138.735 C478.845,138.735 481.170,141.336 481.170,146.538 C481.170,147.866 480.866,149.028 480.256,150.024 C479.648,151.021 479.343,151.851 479.343,152.515 C479.343,153.511 480.119,154.009 481.668,154.009 C486.096,154.009 490.106,151.809 493.704,147.410 C497.300,143.010 500.621,129.355 503.665,106.445 L507.068,80.464 L511.301,56.641 C511.356,56.420 511.495,55.686 511.716,54.441 C511.937,53.196 512.076,52.519 512.131,52.407 L496.858,52.407 L497.688,48.174 L513.128,48.174 C516.448,31.960 521.607,19.882 528.609,11.941 C535.608,4.001 542.927,0.029 550.564,0.029 C554.991,0.029 558.782,1.274 561.936,3.765 C565.090,6.255 566.668,9.272 566.668,12.813 C566.668,15.026 565.962,16.936 564.551,18.540 C563.140,20.146 561.410,20.947 559.363,20.947 ZM421.996,114.746 C414.414,114.746 410.624,111.177 410.624,104.038 C410.624,101.604 411.232,97.924 412.450,92.998 L419.423,65.190 C419.477,64.858 419.699,63.974 420.087,62.534 C420.473,61.096 420.668,59.574 420.668,57.969 C420.668,54.262 419.174,52.407 416.186,52.407 C412.920,52.407 408.286,55.202 402.282,60.791 C396.277,66.381 391.449,76.950 387.797,92.500 L382.899,113.418 L367.211,113.418 L381.488,52.407 L367.211,52.407 L368.124,48.174 L379.330,48.174 C387.021,48.174 393.469,47.704 398.671,46.763 L394.438,64.775 L394.770,65.107 C404.121,52.436 413.750,46.099 423.656,46.099 C427.309,46.099 430.324,47.192 432.704,49.377 C435.083,51.564 436.273,54.482 436.273,58.135 C436.273,59.629 435.830,62.258 434.945,66.021 L427.392,96.733 C426.616,99.943 426.229,102.323 426.229,103.872 C426.229,106.584 427.143,107.939 428.969,107.939 C433.893,107.939 438.874,101.880 443.910,89.761 L447.812,89.761 C444.601,98.449 440.686,104.785 436.066,108.770 C431.445,112.754 426.755,114.746 421.996,114.746 ZM318.592,115.493 C311.287,115.493 305.435,112.810 301.036,107.441 C296.636,102.074 294.437,95.239 294.437,86.938 C294.437,76.037 298.310,66.506 306.058,58.342 C313.805,50.180 322.438,46.099 331.956,46.099 C339.593,46.099 345.499,48.838 349.678,54.316 C353.856,59.795 355.945,66.353 355.945,73.989 C355.945,84.670 352.003,94.257 344.117,102.751 C336.231,111.247 327.723,115.493 318.592,115.493 ZM338.223,52.739 C336.590,50.803 334.280,49.834 331.292,49.834 C326.810,49.834 323.585,51.660 321.622,55.313 C319.657,58.965 317.181,66.367 314.193,77.517 C311.204,88.669 309.710,96.789 309.710,101.880 C309.710,105.090 310.609,107.539 312.408,109.226 C314.206,110.915 316.322,111.758 318.758,111.758 C325.675,111.758 331.056,104.218 334.903,89.138 C338.749,74.059 340.672,64.416 340.672,60.210 C340.672,57.167 339.855,54.677 338.223,52.739 ZM277.977,64.941 C276.151,64.941 274.657,64.319 273.495,63.074 C272.332,61.829 271.751,60.293 271.751,58.467 C271.751,57.692 271.945,56.682 272.332,55.437 C272.719,54.192 272.913,53.183 272.913,52.407 C272.913,50.693 270.644,49.834 266.107,49.834 C261.901,49.834 258.580,50.693 256.146,52.407 C253.710,54.123 252.494,56.281 252.494,58.882 C252.494,60.708 253.199,62.507 254.610,64.277 C256.021,66.049 259.618,68.469 265.401,71.541 C271.183,74.612 275.417,77.795 278.101,81.086 C280.785,84.380 282.127,88.129 282.127,92.334 C282.127,99.141 279.277,104.702 273.578,109.019 C267.877,113.335 261.154,115.493 253.407,115.493 C247.208,115.493 242.076,114.082 238.009,111.260 C233.941,108.438 231.908,105.146 231.908,101.382 C231.908,99.169 232.613,97.301 234.024,95.779 C235.435,94.257 237.192,93.496 239.295,93.496 C241.342,93.496 242.919,94.174 244.027,95.530 C245.133,96.886 245.687,98.422 245.687,100.137 C245.687,101.410 245.355,102.793 244.691,104.287 C244.027,105.781 243.695,106.723 243.695,107.109 C243.695,110.209 247.098,111.758 253.905,111.758 C259.106,111.758 263.270,110.610 266.397,108.313 C269.523,106.017 271.087,103.403 271.087,100.469 C271.087,95.766 266.715,91.311 257.972,87.104 C246.959,81.738 241.454,74.931 241.454,66.685 C241.454,61.650 243.749,56.960 248.343,52.615 C252.936,48.271 258.968,46.099 266.439,46.099 C272.083,46.099 276.579,47.150 279.928,49.253 C283.275,51.357 284.950,54.206 284.950,57.803 C284.950,59.851 284.244,61.552 282.833,62.908 C281.422,64.264 279.803,64.941 277.977,64.941 ZM216.527,64.941 C214.701,64.941 213.207,64.319 212.045,63.074 C210.882,61.829 210.301,60.293 210.301,58.467 C210.301,57.692 210.495,56.682 210.882,55.437 C211.269,54.192 211.463,53.183 211.463,52.407 C211.463,50.693 209.194,49.834 204.657,49.834 C200.451,49.834 197.130,50.693 194.696,52.407 C192.260,54.123 191.044,56.281 191.044,58.882 C191.044,60.708 191.749,62.507 193.160,64.277 C194.571,66.049 198.168,68.469 203.951,71.541 C209.733,74.612 213.967,77.795 216.651,81.086 C219.335,84.380 220.677,88.129 220.677,92.334 C220.677,99.141 217.827,104.702 212.128,109.019 C206.427,113.335 199.704,115.493 191.957,115.493 C185.758,115.493 180.626,114.082 176.559,111.260 C172.491,108.438 170.458,105.146 170.458,101.382 C170.458,99.169 171.163,97.301 172.574,95.779 C173.985,94.257 175.742,93.496 177.845,93.496 C179.892,93.496 181.469,94.174 182.577,95.530 C183.683,96.886 184.237,98.422 184.237,100.137 C184.237,101.410 183.905,102.793 183.241,104.287 C182.577,105.781 182.245,106.723 182.245,107.109 C182.245,110.209 185.648,111.758 192.455,111.758 C197.656,111.758 201.820,110.610 204.947,108.313 C208.073,106.017 209.637,103.403 209.637,100.469 C209.637,95.766 205.265,91.311 196.522,87.104 C185.509,81.738 180.004,74.931 180.004,66.685 C180.004,61.650 182.299,56.960 186.893,52.615 C191.486,48.271 197.518,46.099 204.989,46.099 C210.633,46.099 215.129,47.150 218.478,49.253 C221.825,51.357 223.500,54.206 223.500,57.803 C223.500,59.851 222.794,61.552 221.383,62.908 C219.972,64.264 218.353,64.941 216.527,64.941 ZM128.431,84.697 C126.162,94.880 125.028,100.940 125.028,102.876 C125.028,105.200 125.885,107.262 127.601,109.060 C129.316,110.859 131.752,111.758 134.906,111.758 C145.033,111.758 153.583,105.007 160.555,91.504 L164.125,91.504 C160.417,99.694 155.907,105.740 150.595,109.641 C145.282,113.542 139.831,115.493 134.242,115.493 C127.380,115.493 121.694,112.658 117.184,106.985 C112.673,101.313 110.419,94.741 110.419,87.271 C110.419,77.365 114.362,68.027 122.247,59.255 C130.133,50.485 138.475,46.099 147.274,46.099 C152.973,46.099 157.373,47.856 160.472,51.370 C163.571,54.884 165.121,58.744 165.121,62.949 C165.121,67.266 163.017,71.928 158.812,76.936 C154.606,81.945 144.479,84.531 128.431,84.697 ZM146.444,49.834 C142.072,49.834 138.724,51.826 136.400,55.811 C134.076,59.795 131.696,68.179 129.262,80.962 C137.008,80.796 142.169,79.731 144.742,77.766 C147.316,75.802 149.404,72.634 151.010,68.262 C152.614,63.891 153.417,60.349 153.417,57.637 C153.417,52.436 151.093,49.834 146.444,49.834 ZM0.894,113.418 L1.807,109.185 L17.246,109.185 L38.828,6.338 L22.310,6.338 L23.223,2.104 L75.518,2.104 L74.521,6.338 L58.169,6.338 L36.255,109.185 L58.169,109.185 C65.196,109.185 70.675,108.535 74.604,107.234 C78.533,105.934 82.185,103.042 85.562,98.560 C88.936,94.077 92.617,86.967 96.602,77.227 L100.918,77.227 L91.040,113.418 L0.894,113.418 Z"/>
<path fill="url(#PSgrad_0)"
 d="M659.812,76.936 C655.606,81.945 645.479,84.531 629.431,84.697 C627.162,94.880 626.028,100.940 626.028,102.876 C626.028,105.200 626.885,107.262 628.601,109.060 C630.316,110.859 632.752,111.758 635.906,111.758 C646.033,111.758 654.583,105.007 661.555,91.504 L665.125,91.504 C661.417,99.694 656.907,105.740 651.595,109.641 C646.282,113.542 640.831,115.493 635.242,115.493 C628.380,115.493 622.694,112.658 618.184,106.985 C613.673,101.313 611.419,94.741 611.419,87.271 C611.419,77.365 615.362,68.027 623.247,59.255 C631.133,50.485 639.475,46.099 648.274,46.099 C653.973,46.099 658.373,47.856 661.472,51.370 C664.571,54.884 666.121,58.744 666.121,62.949 C666.121,67.266 664.017,71.928 659.812,76.936 ZM647.444,49.834 C643.072,49.834 639.724,51.826 637.400,55.811 C635.076,59.795 632.696,68.179 630.262,80.962 C638.008,80.796 643.169,79.731 645.742,77.766 C648.316,75.802 650.404,72.634 652.010,68.262 C653.614,63.891 654.417,60.349 654.417,57.637 C654.417,52.436 652.093,49.834 647.444,49.834 ZM564.581,84.697 C562.312,94.880 561.178,100.940 561.178,102.876 C561.178,105.200 562.035,107.262 563.751,109.060 C565.466,110.859 567.902,111.758 571.056,111.758 C581.183,111.758 589.733,105.007 596.705,91.504 L600.275,91.504 C596.567,99.694 592.057,105.740 586.745,109.641 C581.432,113.542 575.981,115.493 570.392,115.493 C563.530,115.493 557.844,112.658 553.334,106.985 C548.823,101.313 546.569,94.741 546.569,87.271 C546.569,77.365 550.512,68.027 558.397,59.255 C566.283,50.485 574.625,46.099 583.424,46.099 C589.123,46.099 593.523,47.856 596.622,51.370 C599.721,54.884 601.271,58.744 601.271,62.949 C601.271,67.266 599.167,71.928 594.962,76.936 C590.756,81.945 580.629,84.531 564.581,84.697 ZM582.594,49.834 C578.222,49.834 574.874,51.826 572.550,55.811 C570.226,59.795 567.846,68.179 565.411,80.962 C573.158,80.796 578.319,79.731 580.892,77.766 C583.466,75.802 585.554,72.634 587.160,68.262 C588.764,63.891 589.567,60.349 589.567,57.637 C589.567,52.436 587.243,49.834 582.594,49.834 ZM559.363,20.947 C557.371,20.947 555.628,20.214 554.133,18.748 C552.639,17.282 551.892,15.580 551.892,13.643 C551.892,11.706 552.694,9.936 554.299,8.330 C555.904,6.726 556.707,5.840 556.707,5.674 C556.707,4.512 555.047,3.931 551.726,3.931 C544.255,3.931 538.929,7.971 535.747,16.050 C532.564,24.130 530.254,34.838 528.816,48.174 L540.852,48.174 L540.022,52.407 L528.318,52.407 L522.258,88.433 C520.266,100.165 518.245,109.711 516.199,117.070 C514.151,124.429 511.702,130.933 508.853,136.577 C506.002,142.222 503.125,146.497 500.220,149.402 C497.315,152.307 494.132,154.465 490.674,155.876 C487.216,157.288 484.048,157.993 481.170,157.993 C477.131,157.993 473.686,156.873 470.835,154.631 C467.986,152.390 466.560,149.692 466.560,146.538 C466.560,144.434 467.197,142.608 468.469,141.060 C469.743,139.510 471.652,138.735 474.197,138.735 C478.845,138.735 481.170,141.336 481.170,146.538 C481.170,147.866 480.866,149.028 480.256,150.024 C479.648,151.021 479.343,151.851 479.343,152.515 C479.343,153.511 480.119,154.009 481.668,154.009 C486.096,154.009 490.106,151.809 493.704,147.410 C497.300,143.010 500.621,129.355 503.665,106.445 L507.068,80.464 L511.301,56.641 C511.356,56.420 511.495,55.686 511.716,54.441 C511.937,53.196 512.076,52.519 512.131,52.407 L496.858,52.407 L497.688,48.174 L513.128,48.174 C516.448,31.960 521.607,19.882 528.609,11.941 C535.608,4.001 542.927,0.029 550.564,0.029 C554.991,0.029 558.782,1.274 561.936,3.765 C565.090,6.255 566.668,9.272 566.668,12.813 C566.668,15.026 565.962,16.936 564.551,18.540 C563.140,20.146 561.410,20.947 559.363,20.947 ZM421.996,114.746 C414.414,114.746 410.624,111.177 410.624,104.038 C410.624,101.604 411.232,97.924 412.450,92.998 L419.423,65.190 C419.477,64.858 419.699,63.974 420.087,62.534 C420.473,61.096 420.668,59.574 420.668,57.969 C420.668,54.262 419.174,52.407 416.186,52.407 C412.920,52.407 408.286,55.202 402.282,60.791 C396.277,66.381 391.449,76.950 387.797,92.500 L382.899,113.418 L367.211,113.418 L381.488,52.407 L367.211,52.407 L368.124,48.174 L379.330,48.174 C387.021,48.174 393.469,47.704 398.671,46.763 L394.438,64.775 L394.770,65.107 C404.121,52.436 413.750,46.099 423.656,46.099 C427.309,46.099 430.324,47.192 432.704,49.377 C435.083,51.564 436.273,54.482 436.273,58.135 C436.273,59.629 435.830,62.258 434.945,66.021 L427.392,96.733 C426.616,99.943 426.229,102.323 426.229,103.872 C426.229,106.584 427.143,107.939 428.969,107.939 C433.893,107.939 438.874,101.880 443.910,89.761 L447.812,89.761 C444.601,98.449 440.686,104.785 436.066,108.770 C431.445,112.754 426.755,114.746 421.996,114.746 ZM318.592,115.493 C311.287,115.493 305.435,112.810 301.036,107.441 C296.636,102.074 294.437,95.239 294.437,86.938 C294.437,76.037 298.310,66.506 306.058,58.342 C313.805,50.180 322.438,46.099 331.956,46.099 C339.593,46.099 345.499,48.838 349.678,54.316 C353.856,59.795 355.945,66.353 355.945,73.989 C355.945,84.670 352.003,94.257 344.117,102.751 C336.231,111.247 327.723,115.493 318.592,115.493 ZM338.223,52.739 C336.590,50.803 334.280,49.834 331.292,49.834 C326.810,49.834 323.585,51.660 321.622,55.313 C319.657,58.965 317.181,66.367 314.193,77.517 C311.204,88.669 309.710,96.789 309.710,101.880 C309.710,105.090 310.609,107.539 312.408,109.226 C314.206,110.915 316.322,111.758 318.758,111.758 C325.675,111.758 331.056,104.218 334.903,89.138 C338.749,74.059 340.672,64.416 340.672,60.210 C340.672,57.167 339.855,54.677 338.223,52.739 ZM277.977,64.941 C276.151,64.941 274.657,64.319 273.495,63.074 C272.332,61.829 271.751,60.293 271.751,58.467 C271.751,57.692 271.945,56.682 272.332,55.437 C272.719,54.192 272.913,53.183 272.913,52.407 C272.913,50.693 270.644,49.834 266.107,49.834 C261.901,49.834 258.580,50.693 256.146,52.407 C253.710,54.123 252.494,56.281 252.494,58.882 C252.494,60.708 253.199,62.507 254.610,64.277 C256.021,66.049 259.618,68.469 265.401,71.541 C271.183,74.612 275.417,77.795 278.101,81.086 C280.785,84.380 282.127,88.129 282.127,92.334 C282.127,99.141 279.277,104.702 273.578,109.019 C267.877,113.335 261.154,115.493 253.407,115.493 C247.208,115.493 242.076,114.082 238.009,111.260 C233.941,108.438 231.908,105.146 231.908,101.382 C231.908,99.169 232.613,97.301 234.024,95.779 C235.435,94.257 237.192,93.496 239.295,93.496 C241.342,93.496 242.919,94.174 244.027,95.530 C245.133,96.886 245.687,98.422 245.687,100.137 C245.687,101.410 245.355,102.793 244.691,104.287 C244.027,105.781 243.695,106.723 243.695,107.109 C243.695,110.209 247.098,111.758 253.905,111.758 C259.106,111.758 263.270,110.610 266.397,108.313 C269.523,106.017 271.087,103.403 271.087,100.469 C271.087,95.766 266.715,91.311 257.972,87.104 C246.959,81.738 241.454,74.931 241.454,66.685 C241.454,61.650 243.749,56.960 248.343,52.615 C252.936,48.271 258.968,46.099 266.439,46.099 C272.083,46.099 276.579,47.150 279.928,49.253 C283.275,51.357 284.950,54.206 284.950,57.803 C284.950,59.851 284.244,61.552 282.833,62.908 C281.422,64.264 279.803,64.941 277.977,64.941 ZM216.527,64.941 C214.701,64.941 213.207,64.319 212.045,63.074 C210.882,61.829 210.301,60.293 210.301,58.467 C210.301,57.692 210.495,56.682 210.882,55.437 C211.269,54.192 211.463,53.183 211.463,52.407 C211.463,50.693 209.194,49.834 204.657,49.834 C200.451,49.834 197.130,50.693 194.696,52.407 C192.260,54.123 191.044,56.281 191.044,58.882 C191.044,60.708 191.749,62.507 193.160,64.277 C194.571,66.049 198.168,68.469 203.951,71.541 C209.733,74.612 213.967,77.795 216.651,81.086 C219.335,84.380 220.677,88.129 220.677,92.334 C220.677,99.141 217.827,104.702 212.128,109.019 C206.427,113.335 199.704,115.493 191.957,115.493 C185.758,115.493 180.626,114.082 176.559,111.260 C172.491,108.438 170.458,105.146 170.458,101.382 C170.458,99.169 171.163,97.301 172.574,95.779 C173.985,94.257 175.742,93.496 177.845,93.496 C179.892,93.496 181.469,94.174 182.577,95.530 C183.683,96.886 184.237,98.422 184.237,100.137 C184.237,101.410 183.905,102.793 183.241,104.287 C182.577,105.781 182.245,106.723 182.245,107.109 C182.245,110.209 185.648,111.758 192.455,111.758 C197.656,111.758 201.820,110.610 204.947,108.313 C208.073,106.017 209.637,103.403 209.637,100.469 C209.637,95.766 205.265,91.311 196.522,87.104 C185.509,81.738 180.004,74.931 180.004,66.685 C180.004,61.650 182.299,56.960 186.893,52.615 C191.486,48.271 197.518,46.099 204.989,46.099 C210.633,46.099 215.129,47.150 218.478,49.253 C221.825,51.357 223.500,54.206 223.500,57.803 C223.500,59.851 222.794,61.552 221.383,62.908 C219.972,64.264 218.353,64.941 216.527,64.941 ZM128.431,84.697 C126.162,94.880 125.028,100.940 125.028,102.876 C125.028,105.200 125.885,107.262 127.601,109.060 C129.316,110.859 131.752,111.758 134.906,111.758 C145.033,111.758 153.583,105.007 160.555,91.504 L164.125,91.504 C160.417,99.694 155.907,105.740 150.595,109.641 C145.282,113.542 139.831,115.493 134.242,115.493 C127.380,115.493 121.694,112.658 117.184,106.985 C112.673,101.313 110.419,94.741 110.419,87.271 C110.419,77.365 114.362,68.027 122.247,59.255 C130.133,50.485 138.475,46.099 147.274,46.099 C152.973,46.099 157.373,47.856 160.472,51.370 C163.571,54.884 165.121,58.744 165.121,62.949 C165.121,67.266 163.017,71.928 158.812,76.936 C154.606,81.945 144.479,84.531 128.431,84.697 ZM146.444,49.834 C142.072,49.834 138.724,51.826 136.400,55.811 C134.076,59.795 131.696,68.179 129.262,80.962 C137.008,80.796 142.169,79.731 144.742,77.766 C147.316,75.802 149.404,72.634 151.010,68.262 C152.614,63.891 153.417,60.349 153.417,57.637 C153.417,52.436 151.093,49.834 146.444,49.834 ZM0.894,113.418 L1.807,109.185 L17.246,109.185 L38.828,6.338 L22.310,6.338 L23.223,2.104 L75.518,2.104 L74.521,6.338 L58.169,6.338 L36.255,109.185 L58.169,109.185 C65.196,109.185 70.675,108.535 74.604,107.234 C78.533,105.934 82.185,103.042 85.562,98.560 C88.936,94.077 92.617,86.967 96.602,77.227 L100.918,77.227 L91.040,113.418 L0.894,113.418 Z"/>
</svg>