<svg xmlns="http://www.w3.org/2000/svg" xmlns:xlink="http://www.w3.org/1999/xlink" viewBox="0 0 665.23 157.96" width="666" height="158">
<defs>
<style>.cls-1{fill:url(#Gradation_5);}</style>
<linearGradient id="Gradation_5" x1="35.56" y1="497.32" x2="36.56" y2="497.32" gradientTransform="matrix(665.23, 0, 0, -157.96, -23654.41, 78637.22)" gradientUnits="userSpaceOnUse">
<stop offset="0.01" stop-color="#1aadad"/>
<stop offset="0.65" stop-color="#69bd7e"/>
<stop offset="1" stop-color="#b7d55b"/>
</linearGradient>
</defs>
<path class="cls-1" d="M658.92,76.91q-6.31,7.52-30.38,7.76-3.4,15.27-3.41,18.18a8.7,8.7,0,0,0,2.58,6.18c1.71,1.8,4.15,2.7,7.3,2.7q15.19,0,25.65-20.26h3.57q-5.57,12.3-13.53,18.14t-16.35,5.85q-10.29,0-17.06-8.5a30.79,30.79,0,0,1-6.76-19.72q0-14.85,11.82-28t25-13.16q8.55,0,13.2,5.27a17.12,17.12,0,0,1,4.65,11.58Q665.23,69.4,658.92,76.91ZM646.55,49.8q-6.56,0-10,6t-7.14,25.15q11.61-.24,15.48-3.19c2.57-2,4.66-5.13,6.27-9.51a32.7,32.7,0,0,0,2.4-10.62Q653.52,49.81,646.55,49.8ZM563.69,84.67q-3.41,15.27-3.41,18.18a8.7,8.7,0,0,0,2.58,6.18c1.71,1.8,4.15,2.7,7.3,2.7q15.2,0,25.65-20.26h3.57q-5.57,12.3-13.53,18.14t-16.35,5.85q-10.29,0-17.06-8.5a30.8,30.8,0,0,1-6.77-19.72q0-14.85,11.83-28t25-13.16q8.55,0,13.2,5.27a17.12,17.12,0,0,1,4.65,11.58q0,6.48-6.31,14T563.69,84.67Zm18-34.87q-6.56,0-10,6t-7.14,25.15q11.61-.24,15.48-3.19c2.57-2,4.66-5.13,6.27-9.51a32.7,32.7,0,0,0,2.4-10.62Q588.67,49.81,581.7,49.8ZM558.47,20.92a7.22,7.22,0,0,1-5.23-2.2A6.93,6.93,0,0,1,551,13.61a7.38,7.38,0,0,1,2.41-5.31,15,15,0,0,0,2.4-2.66q0-1.74-5-1.74-11.21,0-16,12.12t-6.93,32.12h12l-.83,4.24H527.42l-6.06,36A292.54,292.54,0,0,1,515.3,117,106.5,106.5,0,0,1,508,136.55q-4.27,8.46-8.63,12.82a28.92,28.92,0,0,1-9.55,6.48,25.4,25.4,0,0,1-9.5,2.11,16.23,16.23,0,0,1-10.34-3.36,10,10,0,0,1-4.27-8.09,8.38,8.38,0,0,1,1.9-5.48,7,7,0,0,1,5.73-2.32q7,0,7,7.8a6.56,6.56,0,0,1-.92,3.49,5,5,0,0,0-.91,2.49c0,1,.77,1.49,2.32,1.49q6.64,0,12-6.6t10-41l3.4-26,4.24-23.82c0-.22.19-1,.41-2.2a16.48,16.48,0,0,1,.42-2H496l.83-4.24h15.44q5-24.31,15.49-36.23T549.67,0A17.78,17.78,0,0,1,561,3.74q4.74,3.74,4.73,9a8.37,8.37,0,0,1-2.11,5.73A6.63,6.63,0,0,1,558.47,20.92ZM421.1,114.72q-11.37,0-11.37-10.71a50.91,50.91,0,0,1,1.83-11l7-27.81c.05-.33.28-1.22.66-2.65a17.39,17.39,0,0,0,.58-4.57q0-5.56-4.48-5.56-4.89,0-13.9,8.38T386.9,92.47L382,113.39H366.32l14.27-61H366.32l.91-4.24h11.21a111.37,111.37,0,0,0,19.34-1.41l-4.24,18,.34.33q14-19,28.88-19a12.85,12.85,0,0,1,9.05,3.28,11.3,11.3,0,0,1,3.57,8.76A40.56,40.56,0,0,1,434.05,66L426.5,96.7a33.57,33.57,0,0,0-1.16,7.14q0,4.06,2.73,4.07,7.4,0,14.95-18.18h3.9q-4.82,13-11.75,19T421.1,114.72Zm-103.4.74q-11,0-17.56-8t-6.6-20.5a40.28,40.28,0,0,1,11.62-28.6q11.63-12.24,25.9-12.24,11.46,0,17.72,8.22A31.47,31.47,0,0,1,355.05,74q0,16-11.83,28.76T317.7,115.46Zm19.63-62.75a8.55,8.55,0,0,0-6.93-2.91q-6.72,0-9.67,5.48T313.3,77.49q-4.49,16.73-4.48,24.36,0,4.82,2.69,7.35a9,9,0,0,0,6.35,2.53q10.38,0,16.15-22.62t5.77-28.93A11.22,11.22,0,0,0,337.33,52.71Zm-60.25,12.2a5.87,5.87,0,0,1-4.48-1.86,6.53,6.53,0,0,1-1.74-4.61,10.58,10.58,0,0,1,.58-3,11.07,11.07,0,0,0,.58-3q0-2.58-6.81-2.58-6.3,0-10,2.58a7.67,7.67,0,0,0-3.65,6.47,8.63,8.63,0,0,0,2.12,5.4q2.11,2.66,10.79,7.26t12.7,9.55a17.32,17.32,0,0,1,4,11.24q0,10.22-8.55,16.69a32.43,32.43,0,0,1-20.17,6.47q-9.3,0-15.39-4.23T231,101.35a7.94,7.94,0,0,1,2.12-5.6,6.9,6.9,0,0,1,5.27-2.28,5.76,5.76,0,0,1,4.73,2,7.08,7.08,0,0,1,1.66,4.61,10.37,10.37,0,0,1-1,4.15,10.24,10.24,0,0,0-1,2.82q0,4.65,10.21,4.65,7.8,0,12.49-3.45t4.69-7.84q0-7.05-13.11-13.37-16.53-8-16.52-20.41,0-7.56,6.89-14.07t18.09-6.52q8.47,0,13.49,3.15t5,8.55a7.09,7.09,0,0,1-7,7.14Zm-61.45,0a5.87,5.87,0,0,1-4.48-1.86,6.53,6.53,0,0,1-1.74-4.61,10.58,10.58,0,0,1,.58-3,11.07,11.07,0,0,0,.58-3q0-2.58-6.81-2.58-6.3,0-10,2.58a7.67,7.67,0,0,0-3.65,6.47,8.57,8.57,0,0,0,2.12,5.4q2.11,2.66,10.79,7.26t12.7,9.55a17.32,17.32,0,0,1,4,11.24q0,10.22-8.55,16.69a32.43,32.43,0,0,1-20.17,6.47q-9.3,0-15.39-4.23t-6.11-9.88a7.94,7.94,0,0,1,2.12-5.6A6.9,6.9,0,0,1,177,93.47a5.77,5.77,0,0,1,4.73,2,7.08,7.08,0,0,1,1.66,4.61,10.37,10.37,0,0,1-1,4.15,10.24,10.24,0,0,0-1,2.82q0,4.65,10.21,4.65,7.8,0,12.49-3.45t4.69-7.84q0-7.05-13.11-13.37-16.51-8-16.52-20.41,0-7.56,6.89-14.07t18.09-6.52q8.47,0,13.49,3.15t5,8.55a7.09,7.09,0,0,1-7,7.14ZM127.54,84.67q-3.41,15.27-3.41,18.18a8.7,8.7,0,0,0,2.58,6.18c1.71,1.8,4.15,2.7,7.3,2.7q15.19,0,25.65-20.26h3.57q-5.56,12.3-13.53,18.14t-16.35,5.85q-10.29,0-17.06-8.5a30.8,30.8,0,0,1-6.77-19.72q0-14.85,11.83-28t25-13.16q8.55,0,13.2,5.27a17.12,17.12,0,0,1,4.65,11.58q0,6.48-6.31,14T127.54,84.67Zm18-34.87q-6.56,0-10,6t-7.14,25.15q11.61-.24,15.48-3.19c2.57-2,4.66-5.13,6.27-9.51a32.7,32.7,0,0,0,2.4-10.62Q152.52,49.81,145.55,49.8ZM0,113.39l.91-4.23H16.35L37.93,6.31H21.42l.91-4.23H74.62l-1,4.23H57.27L35.36,109.16H57.27q10.54,0,16.44-2t11-8.68q5.06-6.72,11-21.33H100l-9.87,36.19Z"/></svg>