<svg xmlns="http://www.w3.org/2000/svg" xmlns:xlink="http://www.w3.org/1999/xlink" viewBox="0 0 546.26 153.98" width="547" height="154">
<defs>
<style>.cls-1{fill:url(#Gradation_1);}</style>
<linearGradient id="Gradation_1" x1="-23.83" y1="495.26" x2="-22.83" y2="495.26" gradientTransform="matrix(546.26, 0, 0, -153.98, 13014.93, 76336.44)" gradientUnits="userSpaceOnUse">
<stop offset="0.01" stop-color="#00b7b8"/>
<stop offset="0.55" stop-color="#5fd585"/>
<stop offset="1" stop-color="#bef351"/>
</linearGradient>
</defs><path class="cls-1" d="M540,74.83q-6.3,7.52-30.38,7.76-3.4,15.28-3.4,18.18a8.73,8.73,0,0,0,2.57,6.19c1.72,1.79,4.15,2.69,7.31,2.69q15.19,0,25.65-20.25h3.57q-5.57,12.28-13.53,18.14t-16.36,5.85q-10.29,0-17.05-8.51a30.76,30.76,0,0,1-6.77-19.71q0-14.86,11.83-28t25-13.16q8.55,0,13.2,5.28a17.15,17.15,0,0,1,4.64,11.57Q546.26,67.32,540,74.83Zm-12.36-27.1c-4.38,0-7.72,2-10.05,6s-4.7,12.36-7.14,25.15q11.63-.26,15.48-3.2t6.27-9.5a32.54,32.54,0,0,0,2.41-10.63Q534.56,47.73,527.59,47.73ZM482,54.87a3.06,3.06,0,0,1-2.74-1.62,17.51,17.51,0,0,0-1.17-1.78.74.74,0,0,0-.83-.84c-1.27,0-1.9,1.75-1.9,5.23l.33,7.31a24.25,24.25,0,0,1-8.72,19.17,29.65,29.65,0,0,1-20,7.56A24.62,24.62,0,0,1,433.81,86q-9.46,3.48-9.46,9a5.08,5.08,0,0,0,3,4.69q3,1.62,13,1.62,17.59,0,22.87,1.45t8.63,7.06A25.22,25.22,0,0,1,475.15,123q0,13.94-10.09,22.45T437.63,154q-14,0-21.66-5.11T408.33,136q0-13.36,21.25-20.92Q418.21,110,418.21,100.6q0-11.94,13.61-17a20.59,20.59,0,0,1-6-14.45q0-10.12,8.59-17.63A28.38,28.38,0,0,1,453.57,44q12.78,0,18.84,11.21h.33q0-6,2.28-8.84a6.79,6.79,0,0,1,5.44-2.86,5.74,5.74,0,0,1,4,1.61,5.68,5.68,0,0,1,1.74,4.36Q486.19,54.87,482,54.87ZM423.1,122.56Q418,128.91,418,135.3q0,7.3,5.6,11.13t15.15,3.81q15.27,0,23.53-7.22t8.26-15.19a11.37,11.37,0,0,0-8.26-10.75q-3.44-.87-13-.87Q428.17,116.21,423.1,122.56Zm37.4-72.34a6.89,6.89,0,0,0-5.77-2.49q-9,0-12.41,12.33T439,77.28q0,8.88,8,8.88,8.29,0,11.91-11.54t3.61-18.42A9.4,9.4,0,0,0,460.5,50.22Zm-68,63.17q-10.29,0-11.12-15.36h-.33q-7.39,15.36-20.59,15.36-8.13,0-14-7.64t-5.85-18.59a43.13,43.13,0,0,1,12-30.13q12-13,23.86-13,11.3,0,13.61,12.37h.34l2.4-10.87h15.77L397.44,92.8a44.91,44.91,0,0,0-1.58,10c0,2.27.8,3.4,2.41,3.4q2,0,5.64-4.77t7.47-14.16h3.41q-4.49,13.46-10.55,19.76T392.54,113.39ZM385,52.05a8.75,8.75,0,0,0-7.76-4.32q-5.56,0-9.05,5.15t-8,24.19q-4.53,19.05-4.53,23.87,0,8.13,6.31,8.13,4.56,0,9.34-3.57t10.62-16.85a63.67,63.67,0,0,0,5.86-25.81A19.55,19.55,0,0,0,385,52.05ZM323.87,62.84A5.86,5.86,0,0,1,319.39,61a6.52,6.52,0,0,1-1.75-4.61,10.78,10.78,0,0,1,.59-3,10.94,10.94,0,0,0,.58-3q0-2.56-6.81-2.57-6.31,0-10,2.57a7.68,7.68,0,0,0-3.65,6.48,8.61,8.61,0,0,0,2.11,5.39q2.12,2.65,10.79,7.27T324,79a17.3,17.3,0,0,1,4,11.25q0,10.22-8.55,16.68a32.44,32.44,0,0,1-20.17,6.48q-9.3,0-15.4-4.23t-6.1-9.88a8,8,0,0,1,2.12-5.61,6.88,6.88,0,0,1,5.27-2.28,5.78,5.78,0,0,1,4.73,2A7.15,7.15,0,0,1,291.58,98a10.16,10.16,0,0,1-1,4.15,10.67,10.67,0,0,0-1,2.82q0,4.65,10.21,4.65,7.8,0,12.49-3.44T317,98.36q0-7-13.12-13.36-16.51-8.06-16.51-20.42,0-7.56,6.89-14.07T312.33,44q8.48,0,13.49,3.16t5,8.55a7.09,7.09,0,0,1-7,7.14Zm-61.45,0A5.86,5.86,0,0,1,257.94,61a6.48,6.48,0,0,1-1.75-4.61,11.07,11.07,0,0,1,.58-3,10.65,10.65,0,0,0,.59-3q0-2.56-6.81-2.57-6.31,0-10,2.57a7.68,7.68,0,0,0-3.65,6.48,8.61,8.61,0,0,0,2.11,5.39q2.12,2.65,10.79,7.27T262.54,79a17.3,17.3,0,0,1,4,11.25q0,10.22-8.55,16.68a32.44,32.44,0,0,1-20.17,6.48q-9.3,0-15.4-4.23t-6.1-9.88a8,8,0,0,1,2.12-5.61,6.88,6.88,0,0,1,5.27-2.28,5.78,5.78,0,0,1,4.73,2A7.1,7.1,0,0,1,230.13,98a10.16,10.16,0,0,1-1,4.15,10.67,10.67,0,0,0-1,2.82q0,4.65,10.21,4.65,7.8,0,12.49-3.44t4.69-7.85q0-7-13.12-13.36Q225.9,76.94,225.9,64.58q0-7.56,6.88-14.07T250.88,44q8.47,0,13.49,3.16t5,8.55a7.1,7.1,0,0,1-7,7.14Zm-88.1,19.75q-3.4,15.28-3.4,18.18a8.73,8.73,0,0,0,2.57,6.19c1.72,1.79,4.15,2.69,7.31,2.69q15.19,0,25.65-20.25H210q-5.57,12.28-13.53,18.14t-16.36,5.85q-10.29,0-17-8.51a30.76,30.76,0,0,1-6.77-19.71q0-14.86,11.83-28t25-13.16q8.55,0,13.19,5.28A17.11,17.11,0,0,1,211,60.84q0,6.48-6.3,14T174.32,82.59Zm18-34.86c-4.38,0-7.72,2-10.05,6s-4.7,12.36-7.14,25.15q11.63-.26,15.48-3.2t6.27-9.5a32.54,32.54,0,0,0,2.41-10.63Q199.31,47.73,192.34,47.73ZM145.85,4.23,123.77,107.08H139l-.83,4.23H88.07l.83-4.23h15.44L126.26,4.23h-1.5L63.58,111.31h-4L43.83,4.23h-1.5l-22,102.85H36.52l-.83,4.23H0l1-4.23H16.27L38.18,4.23H22.91L23.74,0H62L74.29,83.26h.33L122.69,0h39.42l-.83,4.23Z"/>
</svg>