<svg xmlns="http://www.w3.org/2000/svg" xmlns:xlink="http://www.w3.org/1999/xlink" width="455" height="114" viewBox="0 0 455 114">
<defs>
<linearGradient id="PSgrad_0" x1="0%" x2="100%" y1="0%" y2="0%">
  <stop offset="1%" stop-color="rgb(0,183,184)" stop-opacity="1" />
  <stop offset="65%" stop-color="rgb(95,213,133)" stop-opacity="1" />
  <stop offset="100%" stop-color="rgb(190,243,81)" stop-opacity="1" />
</linearGradient>
</defs>
<path fill-rule="evenodd"  fill="rgb(0, 185, 183)"
 d="M435.859,106.305 C440.784,106.305 445.764,100.245 450.800,88.126 L454.702,88.126 C451.492,96.815 447.576,103.150 442.956,107.135 C438.335,111.119 433.645,113.111 428.886,113.111 C421.304,113.111 417.514,109.542 417.514,102.403 C417.514,99.969 418.123,96.289 419.341,91.363 L426.313,63.556 C426.368,63.224 426.589,62.339 426.977,60.899 C427.364,59.461 427.558,57.940 427.558,56.334 C427.558,52.627 426.064,50.772 423.076,50.772 C419.810,50.772 415.176,53.567 409.172,59.156 C403.167,64.746 398.340,75.316 394.687,90.865 L389.790,111.783 L374.101,111.783 L388.379,50.772 L374.101,50.772 L375.014,46.539 L386.220,46.539 C393.912,46.539 400.359,46.070 405.561,45.128 L401.328,63.141 L401.660,63.473 C411.011,50.801 420.640,44.464 430.547,44.464 C434.199,44.464 437.214,45.557 439.594,47.743 C441.973,49.929 443.164,52.848 443.164,56.500 C443.164,57.994 442.720,60.623 441.836,64.386 L434.282,95.099 C433.506,98.309 433.120,100.689 433.120,102.237 C433.120,104.949 434.033,106.305 435.859,106.305 ZM325.482,113.858 C318.178,113.858 312.326,111.175 307.926,105.807 C303.527,100.440 301.327,93.604 301.327,85.304 C301.327,74.402 305.200,64.871 312.948,56.708 C320.695,48.546 329.328,44.464 338.847,44.464 C346.483,44.464 352.390,47.203 356.569,52.682 C360.746,58.160 362.836,64.718 362.836,72.354 C362.836,83.035 358.893,92.623 351.007,101.117 C343.121,109.612 334.613,113.858 325.482,113.858 ZM345.114,51.104 C343.481,49.168 341.171,48.199 338.183,48.199 C333.700,48.199 330.476,50.025 328.512,53.678 C326.547,57.330 324.071,64.732 321.083,75.882 C318.095,87.034 316.600,95.154 316.600,100.245 C316.600,103.455 317.499,105.904 319.298,107.591 C321.096,109.280 323.213,110.123 325.648,110.123 C332.565,110.123 337.946,102.584 341.793,87.503 C345.639,72.425 347.562,62.781 347.562,58.575 C347.562,55.532 346.745,53.042 345.114,51.104 ZM284.867,63.307 C283.041,63.307 281.547,62.684 280.385,61.439 C279.223,60.194 278.642,58.658 278.642,56.832 C278.642,56.058 278.835,55.047 279.223,53.802 C279.609,52.557 279.804,51.548 279.804,50.772 C279.804,49.058 277.534,48.199 272.997,48.199 C268.791,48.199 265.471,49.058 263.036,50.772 C260.600,52.488 259.384,54.647 259.384,57.247 C259.384,59.073 260.089,60.872 261.501,62.643 C262.912,64.414 266.508,66.834 272.292,69.906 C278.074,72.977 282.307,76.160 284.992,79.452 C287.675,82.745 289.018,86.494 289.018,90.699 C289.018,97.506 286.167,103.067 280.468,107.384 C274.768,111.700 268.044,113.858 260.297,113.858 C254.099,113.858 248.966,112.447 244.899,109.625 C240.832,106.803 238.798,103.511 238.798,99.747 C238.798,97.534 239.504,95.667 240.915,94.144 C242.326,92.623 244.082,91.861 246.186,91.861 C248.232,91.861 249.809,92.540 250.917,93.895 C252.023,95.252 252.577,96.787 252.577,98.502 C252.577,99.776 252.245,101.158 251.581,102.652 C250.917,104.146 250.585,105.088 250.585,105.475 C250.585,108.574 253.988,110.123 260.795,110.123 C265.996,110.123 270.161,108.975 273.288,106.678 C276.413,104.383 277.978,101.768 277.978,98.834 C277.978,94.131 273.605,89.676 264.862,85.470 C253.850,80.103 248.344,73.296 248.344,65.050 C248.344,60.015 250.640,55.325 255.233,50.980 C259.826,46.636 265.858,44.464 273.329,44.464 C278.974,44.464 283.469,45.516 286.818,47.618 C290.166,49.722 291.840,52.571 291.840,56.168 C291.840,58.216 291.134,59.918 289.723,61.273 C288.312,62.630 286.693,63.307 284.867,63.307 ZM223.417,63.307 C221.591,63.307 220.097,62.684 218.935,61.439 C217.773,60.194 217.192,58.658 217.192,56.832 C217.192,56.058 217.385,55.047 217.773,53.802 C218.159,52.557 218.354,51.548 218.354,50.772 C218.354,49.058 216.084,48.199 211.547,48.199 C207.341,48.199 204.021,49.058 201.586,50.772 C199.150,52.488 197.934,54.647 197.934,57.247 C197.934,59.073 198.639,60.872 200.051,62.643 C201.462,64.414 205.058,66.834 210.842,69.906 C216.624,72.977 220.857,76.160 223.542,79.452 C226.225,82.745 227.568,86.494 227.568,90.699 C227.568,97.506 224.717,103.067 219.018,107.384 C213.318,111.700 206.594,113.858 198.847,113.858 C192.649,113.858 187.516,112.447 183.449,109.625 C179.382,106.803 177.348,103.511 177.348,99.747 C177.348,97.534 178.054,95.667 179.465,94.144 C180.876,92.623 182.632,91.861 184.736,91.861 C186.782,91.861 188.359,92.540 189.467,93.895 C190.573,95.252 191.127,96.787 191.127,98.502 C191.127,99.776 190.795,101.158 190.131,102.652 C189.467,104.146 189.135,105.088 189.135,105.475 C189.135,108.574 192.538,110.123 199.345,110.123 C204.546,110.123 208.711,108.975 211.838,106.678 C214.963,104.383 216.528,101.768 216.528,98.834 C216.528,94.131 212.155,89.676 203.412,85.470 C192.400,80.103 186.894,73.296 186.894,65.050 C186.894,60.015 189.190,55.325 193.783,50.980 C198.376,46.636 204.408,44.464 211.879,44.464 C217.524,44.464 222.019,45.516 225.368,47.618 C228.716,49.722 230.390,52.571 230.390,56.168 C230.390,58.216 229.684,59.918 228.273,61.273 C226.862,62.630 225.243,63.307 223.417,63.307 ZM135.322,83.062 C133.052,93.245 131.918,99.305 131.918,101.241 C131.918,103.565 132.776,105.628 134.492,107.425 C136.206,109.224 138.642,110.123 141.796,110.123 C151.923,110.123 160.473,103.372 167.446,89.869 L171.015,89.869 C167.307,98.060 162.797,104.105 157.485,108.006 C152.172,111.908 146.721,113.858 141.132,113.858 C134.270,113.858 128.584,111.023 124.074,105.350 C119.563,99.678 117.309,93.106 117.309,85.636 C117.309,75.731 121.252,66.392 129.138,57.621 C137.023,48.850 145.366,44.464 154.165,44.464 C159.864,44.464 164.263,46.221 167.363,49.735 C170.461,53.250 172.011,57.110 172.011,61.314 C172.011,65.631 169.908,70.294 165.703,75.301 C161.496,80.310 151.370,82.896 135.322,83.062 ZM153.334,48.199 C148.962,48.199 145.615,50.191 143.291,54.176 C140.966,58.160 138.586,66.544 136.152,79.327 C143.899,79.161 149.060,78.096 151.633,76.131 C154.206,74.168 156.294,70.999 157.900,66.627 C159.504,62.256 160.307,58.714 160.307,56.002 C160.307,50.801 157.983,48.199 153.334,48.199 ZM0.984,111.783 L1.897,107.550 L17.336,107.550 L38.918,4.703 L22.400,4.703 L23.313,0.470 L75.608,0.470 L74.612,4.703 L58.259,4.703 L36.345,107.550 L58.259,107.550 C65.286,107.550 70.765,106.900 74.695,105.599 C78.623,104.300 82.276,101.407 85.652,96.925 C89.027,92.442 92.708,85.332 96.692,75.592 L101.008,75.592 L91.130,111.783 L0.984,111.783 Z"/>
<path fill="url(#PSgrad_0)"
 d="M435.859,106.305 C440.784,106.305 445.764,100.245 450.800,88.126 L454.702,88.126 C451.492,96.815 447.576,103.150 442.956,107.135 C438.335,111.119 433.645,113.111 428.886,113.111 C421.304,113.111 417.514,109.542 417.514,102.403 C417.514,99.969 418.123,96.289 419.341,91.363 L426.313,63.556 C426.368,63.224 426.589,62.339 426.977,60.899 C427.364,59.461 427.558,57.940 427.558,56.334 C427.558,52.627 426.064,50.772 423.076,50.772 C419.810,50.772 415.176,53.567 409.172,59.156 C403.167,64.746 398.340,75.316 394.687,90.865 L389.790,111.783 L374.101,111.783 L388.379,50.772 L374.101,50.772 L375.014,46.539 L386.220,46.539 C393.912,46.539 400.359,46.070 405.561,45.128 L401.328,63.141 L401.660,63.473 C411.011,50.801 420.640,44.464 430.547,44.464 C434.199,44.464 437.214,45.557 439.594,47.743 C441.973,49.929 443.164,52.848 443.164,56.500 C443.164,57.994 442.720,60.623 441.836,64.386 L434.282,95.099 C433.506,98.309 433.120,100.689 433.120,102.237 C433.120,104.949 434.033,106.305 435.859,106.305 ZM325.482,113.858 C318.178,113.858 312.326,111.175 307.926,105.807 C303.527,100.440 301.327,93.604 301.327,85.304 C301.327,74.402 305.200,64.871 312.948,56.708 C320.695,48.546 329.328,44.464 338.847,44.464 C346.483,44.464 352.390,47.203 356.569,52.682 C360.746,58.160 362.836,64.718 362.836,72.354 C362.836,83.035 358.893,92.623 351.007,101.117 C343.121,109.612 334.613,113.858 325.482,113.858 ZM345.114,51.104 C343.481,49.168 341.171,48.199 338.183,48.199 C333.700,48.199 330.476,50.025 328.512,53.678 C326.547,57.330 324.071,64.732 321.083,75.882 C318.095,87.034 316.600,95.154 316.600,100.245 C316.600,103.455 317.499,105.904 319.298,107.591 C321.096,109.280 323.213,110.123 325.648,110.123 C332.565,110.123 337.946,102.584 341.793,87.503 C345.639,72.425 347.562,62.781 347.562,58.575 C347.562,55.532 346.745,53.042 345.114,51.104 ZM284.867,63.307 C283.041,63.307 281.547,62.684 280.385,61.439 C279.223,60.194 278.642,58.658 278.642,56.832 C278.642,56.058 278.835,55.047 279.223,53.802 C279.609,52.557 279.804,51.548 279.804,50.772 C279.804,49.058 277.534,48.199 272.997,48.199 C268.791,48.199 265.471,49.058 263.036,50.772 C260.600,52.488 259.384,54.647 259.384,57.247 C259.384,59.073 260.089,60.872 261.501,62.643 C262.912,64.414 266.508,66.834 272.292,69.906 C278.074,72.977 282.307,76.160 284.992,79.452 C287.675,82.745 289.018,86.494 289.018,90.699 C289.018,97.506 286.167,103.067 280.468,107.384 C274.768,111.700 268.044,113.858 260.297,113.858 C254.099,113.858 248.966,112.447 244.899,109.625 C240.832,106.803 238.798,103.511 238.798,99.747 C238.798,97.534 239.504,95.667 240.915,94.144 C242.326,92.623 244.082,91.861 246.186,91.861 C248.232,91.861 249.809,92.540 250.917,93.895 C252.023,95.252 252.577,96.787 252.577,98.502 C252.577,99.776 252.245,101.158 251.581,102.652 C250.917,104.146 250.585,105.088 250.585,105.475 C250.585,108.574 253.988,110.123 260.795,110.123 C265.996,110.123 270.161,108.975 273.288,106.678 C276.413,104.383 277.978,101.768 277.978,98.834 C277.978,94.131 273.605,89.676 264.862,85.470 C253.850,80.103 248.344,73.296 248.344,65.050 C248.344,60.015 250.640,55.325 255.233,50.980 C259.826,46.636 265.858,44.464 273.329,44.464 C278.974,44.464 283.469,45.516 286.818,47.618 C290.166,49.722 291.840,52.571 291.840,56.168 C291.840,58.216 291.134,59.918 289.723,61.273 C288.312,62.630 286.693,63.307 284.867,63.307 ZM223.417,63.307 C221.591,63.307 220.097,62.684 218.935,61.439 C217.773,60.194 217.192,58.658 217.192,56.832 C217.192,56.058 217.385,55.047 217.773,53.802 C218.159,52.557 218.354,51.548 218.354,50.772 C218.354,49.058 216.084,48.199 211.547,48.199 C207.341,48.199 204.021,49.058 201.586,50.772 C199.150,52.488 197.934,54.647 197.934,57.247 C197.934,59.073 198.639,60.872 200.051,62.643 C201.462,64.414 205.058,66.834 210.842,69.906 C216.624,72.977 220.857,76.160 223.542,79.452 C226.225,82.745 227.568,86.494 227.568,90.699 C227.568,97.506 224.717,103.067 219.018,107.384 C213.318,111.700 206.594,113.858 198.847,113.858 C192.649,113.858 187.516,112.447 183.449,109.625 C179.382,106.803 177.348,103.511 177.348,99.747 C177.348,97.534 178.054,95.667 179.465,94.144 C180.876,92.623 182.632,91.861 184.736,91.861 C186.782,91.861 188.359,92.540 189.467,93.895 C190.573,95.252 191.127,96.787 191.127,98.502 C191.127,99.776 190.795,101.158 190.131,102.652 C189.467,104.146 189.135,105.088 189.135,105.475 C189.135,108.574 192.538,110.123 199.345,110.123 C204.546,110.123 208.711,108.975 211.838,106.678 C214.963,104.383 216.528,101.768 216.528,98.834 C216.528,94.131 212.155,89.676 203.412,85.470 C192.400,80.103 186.894,73.296 186.894,65.050 C186.894,60.015 189.190,55.325 193.783,50.980 C198.376,46.636 204.408,44.464 211.879,44.464 C217.524,44.464 222.019,45.516 225.368,47.618 C228.716,49.722 230.390,52.571 230.390,56.168 C230.390,58.216 229.684,59.918 228.273,61.273 C226.862,62.630 225.243,63.307 223.417,63.307 ZM135.322,83.062 C133.052,93.245 131.918,99.305 131.918,101.241 C131.918,103.565 132.776,105.628 134.492,107.425 C136.206,109.224 138.642,110.123 141.796,110.123 C151.923,110.123 160.473,103.372 167.446,89.869 L171.015,89.869 C167.307,98.060 162.797,104.105 157.485,108.006 C152.172,111.908 146.721,113.858 141.132,113.858 C134.270,113.858 128.584,111.023 124.074,105.350 C119.563,99.678 117.309,93.106 117.309,85.636 C117.309,75.731 121.252,66.392 129.138,57.621 C137.023,48.850 145.366,44.464 154.165,44.464 C159.864,44.464 164.263,46.221 167.363,49.735 C170.461,53.250 172.011,57.110 172.011,61.314 C172.011,65.631 169.908,70.294 165.703,75.301 C161.496,80.310 151.370,82.896 135.322,83.062 ZM153.334,48.199 C148.962,48.199 145.615,50.191 143.291,54.176 C140.966,58.160 138.586,66.544 136.152,79.327 C143.899,79.161 149.060,78.096 151.633,76.131 C154.206,74.168 156.294,70.999 157.900,66.627 C159.504,62.256 160.307,58.714 160.307,56.002 C160.307,50.801 157.983,48.199 153.334,48.199 ZM0.984,111.783 L1.897,107.550 L17.336,107.550 L38.918,4.703 L22.400,4.703 L23.313,0.470 L75.608,0.470 L74.612,4.703 L58.259,4.703 L36.345,107.550 L58.259,107.550 C65.286,107.550 70.765,106.900 74.695,105.599 C78.623,104.300 82.276,101.407 85.652,96.925 C89.027,92.442 92.708,85.332 96.692,75.592 L101.008,75.592 L91.130,111.783 L0.984,111.783 Z"/>
</svg>