<svg xmlns="http://www.w3.org/2000/svg" xmlns:xlink="http://www.w3.org/1999/xlink" width="547" height="155" viewBox="0 0 547 155">
<defs>
<linearGradient id="PSgrad_0" x1="0%" x2="100%" y1="0%" y2="0%">
  <stop offset="1%" stop-color="rgb(0,183,184)" stop-opacity="1" />
  <stop offset="55%" stop-color="rgb(95,213,133)" stop-opacity="1" />
  <stop offset="100%" stop-color="rgb(190,243,81)" stop-opacity="1" />
</linearGradient>
</defs>
<path fill-rule="evenodd"  fill="rgb(0, 185, 183)"
 d="M540.128,75.301 C535.921,80.310 525.795,82.896 509.747,83.063 C507.477,93.245 506.343,99.305 506.343,101.241 C506.343,103.565 507.201,105.628 508.917,107.425 C510.631,109.224 513.067,110.123 516.221,110.123 C526.348,110.123 534.898,103.372 541.871,89.869 L545.440,89.869 C541.732,98.060 537.222,104.105 531.910,108.006 C526.597,111.908 521.146,113.858 515.557,113.858 C508.695,113.858 503.009,111.023 498.499,105.350 C493.988,99.678 491.734,93.106 491.734,85.636 C491.734,75.731 495.677,66.392 503.563,57.621 C511.448,48.850 519.791,44.464 528.590,44.464 C534.289,44.464 538.688,46.221 541.788,49.735 C544.886,53.250 546.436,57.110 546.436,61.314 C546.436,65.631 544.332,70.294 540.128,75.301 ZM527.759,48.199 C523.387,48.199 520.040,50.191 517.716,54.176 C515.391,58.160 513.011,66.544 510.577,79.327 C518.324,79.161 523.485,78.096 526.058,76.131 C528.631,74.168 530.719,70.999 532.325,66.627 C533.929,62.256 534.732,58.714 534.732,56.002 C534.732,50.801 532.408,48.199 527.759,48.199 ZM482.129,55.338 C480.967,55.338 480.054,54.798 479.390,53.719 C478.725,52.640 478.338,52.046 478.227,51.935 C478.227,51.382 477.950,51.104 477.397,51.104 C476.124,51.104 475.488,52.848 475.488,56.334 L475.820,63.639 C475.820,71.387 472.915,77.779 467.104,82.813 C461.294,87.850 454.625,90.367 447.100,90.367 C442.561,90.367 438.189,89.068 433.984,86.466 C427.676,88.790 424.521,91.778 424.521,95.431 C424.521,97.479 425.517,99.042 427.510,100.121 C429.502,101.200 433.818,101.739 440.459,101.739 C452.190,101.739 459.813,102.224 463.328,103.192 C466.841,104.161 469.719,106.512 471.960,110.248 C474.202,113.983 475.322,118.395 475.322,123.487 C475.322,132.784 471.960,140.268 465.237,145.941 C458.513,151.613 449.368,154.449 437.803,154.449 C428.450,154.449 421.228,152.748 416.138,149.344 C411.047,145.941 408.501,141.637 408.501,136.437 C408.501,127.526 415.584,120.553 429.751,115.519 C422.169,112.142 418.379,107.329 418.379,101.075 C418.379,93.106 422.916,87.435 431.992,84.059 C428.008,79.798 426.016,74.984 426.016,69.615 C426.016,62.864 428.879,56.985 434.607,51.976 C440.334,46.968 446.712,44.464 453.740,44.464 C462.261,44.464 468.543,48.199 472.583,55.670 L472.915,55.670 C472.915,51.686 473.675,48.739 475.198,46.830 C476.719,44.920 478.531,43.966 480.635,43.966 C482.129,43.966 483.457,44.505 484.619,45.584 C485.781,46.664 486.362,48.116 486.362,49.942 C486.362,53.540 484.951,55.338 482.129,55.338 ZM423.276,123.031 C419.900,127.264 418.213,131.511 418.213,135.772 C418.213,140.641 420.080,144.350 423.816,146.896 C427.551,149.440 432.600,150.714 438.965,150.714 C449.146,150.714 456.990,148.307 462.497,143.492 C468.003,138.678 470.757,133.614 470.757,128.302 C470.757,125.812 469.954,123.542 468.350,121.495 C466.744,119.447 464.793,118.133 462.497,117.552 C460.200,116.971 455.870,116.681 449.507,116.681 C435.395,116.681 426.651,118.797 423.276,123.031 ZM460.671,50.689 C459.370,49.029 457.447,48.199 454.902,48.199 C448.870,48.199 444.734,52.308 442.493,60.526 C440.251,68.744 439.131,74.485 439.131,77.750 C439.131,83.672 441.787,86.632 447.100,86.632 C452.633,86.632 456.604,82.786 459.011,75.094 C461.418,67.403 462.622,61.260 462.622,56.666 C462.622,54.342 461.971,52.350 460.671,50.689 ZM392.714,113.858 C385.852,113.858 382.143,108.740 381.591,98.502 L381.259,98.502 C376.333,108.740 369.472,113.858 360.673,113.858 C355.249,113.858 350.587,111.314 346.686,106.222 C342.785,101.131 340.834,94.933 340.834,87.628 C340.834,76.229 344.831,66.185 352.829,57.496 C360.825,48.809 368.779,44.464 376.693,44.464 C384.219,44.464 388.757,48.587 390.307,56.832 L390.639,56.832 L393.046,45.958 L408.817,45.958 L397.611,93.272 C396.560,97.534 396.034,100.882 396.034,103.316 C396.034,105.586 396.836,106.720 398.441,106.720 C399.770,106.720 401.650,105.130 404.086,101.947 C406.520,98.765 409.011,94.048 411.557,87.794 L414.960,87.794 C411.972,96.759 408.457,103.345 404.418,107.550 C400.378,111.756 396.477,113.858 392.714,113.858 ZM385.119,52.516 C383.264,49.639 380.678,48.199 377.358,48.199 C373.649,48.199 370.634,49.915 368.310,53.346 C365.985,56.778 363.315,64.842 360.299,77.542 C357.283,90.243 355.775,98.198 355.775,101.407 C355.775,106.831 357.878,109.542 362.084,109.542 C365.127,109.542 368.240,108.353 371.422,105.973 C374.604,103.594 378.146,97.977 382.047,89.122 C385.949,80.269 387.900,71.663 387.900,63.307 C387.900,58.990 386.972,55.394 385.119,52.516 ZM324.042,63.307 C322.216,63.307 320.722,62.684 319.560,61.439 C318.398,60.194 317.817,58.658 317.817,56.832 C317.817,56.058 318.010,55.047 318.398,53.802 C318.784,52.557 318.979,51.548 318.979,50.772 C318.979,49.058 316.709,48.199 312.172,48.199 C307.966,48.199 304.646,49.058 302.211,50.772 C299.775,52.488 298.559,54.647 298.559,57.247 C298.559,59.073 299.264,60.872 300.676,62.643 C302.087,64.414 305.683,66.834 311.467,69.906 C317.249,72.977 321.482,76.160 324.167,79.452 C326.850,82.745 328.193,86.494 328.193,90.699 C328.193,97.506 325.342,103.067 319.643,107.384 C313.943,111.700 307.219,113.858 299.472,113.858 C293.274,113.858 288.141,112.447 284.074,109.625 C280.007,106.803 277.973,103.511 277.973,99.747 C277.973,97.534 278.679,95.667 280.090,94.144 C281.501,92.623 283.257,91.861 285.361,91.861 C287.407,91.861 288.984,92.540 290.092,93.895 C291.198,95.252 291.752,96.787 291.752,98.502 C291.752,99.776 291.420,101.158 290.756,102.652 C290.092,104.146 289.760,105.088 289.760,105.475 C289.760,108.574 293.163,110.123 299.970,110.123 C305.171,110.123 309.336,108.975 312.463,106.678 C315.588,104.383 317.153,101.768 317.153,98.834 C317.153,94.131 312.780,89.676 304.037,85.470 C293.025,80.103 287.519,73.296 287.519,65.050 C287.519,60.015 289.815,55.325 294.409,50.980 C299.001,46.636 305.034,44.464 312.504,44.464 C318.149,44.464 322.644,45.516 325.993,47.618 C329.341,49.722 331.015,52.571 331.015,56.168 C331.015,58.216 330.309,59.918 328.898,61.273 C327.487,62.630 325.868,63.307 324.042,63.307 ZM262.592,63.307 C260.766,63.307 259.272,62.684 258.110,61.439 C256.948,60.194 256.367,58.658 256.367,56.832 C256.367,56.058 256.560,55.047 256.948,53.802 C257.334,52.557 257.529,51.548 257.529,50.772 C257.529,49.058 255.259,48.199 250.722,48.199 C246.516,48.199 243.196,49.058 240.761,50.772 C238.325,52.488 237.109,54.647 237.109,57.247 C237.109,59.073 237.814,60.872 239.226,62.643 C240.637,64.414 244.233,66.834 250.017,69.906 C255.799,72.977 260.032,76.160 262.717,79.452 C265.400,82.745 266.743,86.494 266.743,90.699 C266.743,97.506 263.892,103.067 258.193,107.384 C252.493,111.700 245.769,113.858 238.022,113.858 C231.824,113.858 226.691,112.447 222.624,109.625 C218.557,106.803 216.523,103.511 216.523,99.747 C216.523,97.534 217.229,95.667 218.640,94.144 C220.051,92.623 221.807,91.861 223.911,91.861 C225.957,91.861 227.534,92.540 228.642,93.895 C229.748,95.252 230.302,96.787 230.302,98.502 C230.302,99.776 229.970,101.158 229.306,102.652 C228.642,104.146 228.310,105.088 228.310,105.475 C228.310,108.574 231.713,110.123 238.520,110.123 C243.721,110.123 247.886,108.975 251.013,106.678 C254.138,104.383 255.703,101.768 255.703,98.834 C255.703,94.131 251.330,89.676 242.587,85.470 C231.575,80.103 226.069,73.296 226.069,65.050 C226.069,60.015 228.365,55.325 232.958,50.980 C237.551,46.636 243.583,44.464 251.054,44.464 C256.699,44.464 261.194,45.516 264.543,47.618 C267.891,49.722 269.565,52.571 269.565,56.168 C269.565,58.216 268.859,59.918 267.448,61.273 C266.037,62.630 264.418,63.307 262.592,63.307 ZM174.497,83.063 C172.227,93.245 171.093,99.305 171.093,101.241 C171.093,103.565 171.951,105.628 173.667,107.425 C175.381,109.224 177.817,110.123 180.971,110.123 C191.098,110.123 199.648,103.372 206.621,89.869 L210.190,89.869 C206.482,98.060 201.972,104.105 196.660,108.006 C191.347,111.908 185.896,113.858 180.307,113.858 C173.445,113.858 167.759,111.023 163.249,105.350 C158.738,99.678 156.484,93.106 156.484,85.636 C156.484,75.731 160.427,66.392 168.313,57.621 C176.198,48.850 184.541,44.464 193.340,44.464 C199.039,44.464 203.438,46.221 206.538,49.735 C209.636,53.250 211.186,57.110 211.186,61.314 C211.186,65.631 209.083,70.294 204.878,75.301 C200.671,80.310 190.545,82.896 174.497,83.063 ZM192.509,48.199 C188.137,48.199 184.790,50.191 182.466,54.176 C180.141,58.160 177.761,66.544 175.327,79.327 C183.074,79.161 188.235,78.096 190.808,76.131 C193.381,74.168 195.469,70.999 197.075,66.627 C198.679,62.256 199.482,58.714 199.482,56.002 C199.482,50.801 197.158,48.199 192.509,48.199 ZM146.018,4.703 L123.938,107.550 L139.211,107.550 L138.381,111.783 L88.245,111.783 L89.075,107.550 L104.514,107.550 L126.428,4.703 L124.934,4.703 L63.757,111.783 L59.773,111.783 L44.001,4.703 L42.507,4.703 L20.510,107.550 L36.697,107.550 L35.867,111.783 L0.173,111.783 L1.169,107.550 L16.443,107.550 L38.357,4.703 L23.083,4.703 L23.914,0.470 L62.180,0.470 L74.465,83.727 L74.797,83.727 L122.859,0.470 L162.288,0.470 L161.458,4.703 L146.018,4.703 Z"/>
<path fill="url(#PSgrad_0)"
 d="M540.128,75.301 C535.921,80.310 525.795,82.896 509.747,83.063 C507.477,93.245 506.343,99.305 506.343,101.241 C506.343,103.565 507.201,105.628 508.917,107.425 C510.631,109.224 513.067,110.123 516.221,110.123 C526.348,110.123 534.898,103.372 541.871,89.869 L545.440,89.869 C541.732,98.060 537.222,104.105 531.910,108.006 C526.597,111.908 521.146,113.858 515.557,113.858 C508.695,113.858 503.009,111.023 498.499,105.350 C493.988,99.678 491.734,93.106 491.734,85.636 C491.734,75.731 495.677,66.392 503.563,57.621 C511.448,48.850 519.791,44.464 528.590,44.464 C534.289,44.464 538.688,46.221 541.788,49.735 C544.886,53.250 546.436,57.110 546.436,61.314 C546.436,65.631 544.332,70.294 540.128,75.301 ZM527.759,48.199 C523.387,48.199 520.040,50.191 517.716,54.176 C515.391,58.160 513.011,66.544 510.577,79.327 C518.324,79.161 523.485,78.096 526.058,76.131 C528.631,74.168 530.719,70.999 532.325,66.627 C533.929,62.256 534.732,58.714 534.732,56.002 C534.732,50.801 532.408,48.199 527.759,48.199 ZM482.129,55.338 C480.967,55.338 480.054,54.798 479.390,53.719 C478.725,52.640 478.338,52.046 478.227,51.935 C478.227,51.382 477.950,51.104 477.397,51.104 C476.124,51.104 475.488,52.848 475.488,56.334 L475.820,63.639 C475.820,71.387 472.915,77.779 467.104,82.813 C461.294,87.850 454.625,90.367 447.100,90.367 C442.561,90.367 438.189,89.068 433.984,86.466 C427.676,88.790 424.521,91.778 424.521,95.431 C424.521,97.479 425.517,99.042 427.510,100.121 C429.502,101.200 433.818,101.739 440.459,101.739 C452.190,101.739 459.813,102.224 463.328,103.192 C466.841,104.161 469.719,106.512 471.960,110.248 C474.202,113.983 475.322,118.395 475.322,123.487 C475.322,132.784 471.960,140.268 465.237,145.941 C458.513,151.613 449.368,154.449 437.803,154.449 C428.450,154.449 421.228,152.748 416.138,149.344 C411.047,145.941 408.501,141.637 408.501,136.437 C408.501,127.526 415.584,120.553 429.751,115.519 C422.169,112.142 418.379,107.329 418.379,101.075 C418.379,93.106 422.916,87.435 431.992,84.059 C428.008,79.798 426.016,74.984 426.016,69.615 C426.016,62.864 428.879,56.985 434.607,51.976 C440.334,46.968 446.712,44.464 453.740,44.464 C462.261,44.464 468.543,48.199 472.583,55.670 L472.915,55.670 C472.915,51.686 473.675,48.739 475.198,46.830 C476.719,44.920 478.531,43.966 480.635,43.966 C482.129,43.966 483.457,44.505 484.619,45.584 C485.781,46.664 486.362,48.116 486.362,49.942 C486.362,53.540 484.951,55.338 482.129,55.338 ZM423.276,123.031 C419.900,127.264 418.213,131.511 418.213,135.772 C418.213,140.641 420.080,144.350 423.816,146.896 C427.551,149.440 432.600,150.714 438.965,150.714 C449.146,150.714 456.990,148.307 462.497,143.492 C468.003,138.678 470.757,133.614 470.757,128.302 C470.757,125.812 469.954,123.542 468.350,121.495 C466.744,119.447 464.793,118.133 462.497,117.552 C460.200,116.971 455.870,116.681 449.507,116.681 C435.395,116.681 426.651,118.797 423.276,123.031 ZM460.671,50.689 C459.370,49.029 457.447,48.199 454.902,48.199 C448.870,48.199 444.734,52.308 442.493,60.526 C440.251,68.744 439.131,74.485 439.131,77.750 C439.131,83.672 441.787,86.632 447.100,86.632 C452.633,86.632 456.604,82.786 459.011,75.094 C461.418,67.403 462.622,61.260 462.622,56.666 C462.622,54.342 461.971,52.350 460.671,50.689 ZM392.714,113.858 C385.852,113.858 382.143,108.740 381.591,98.502 L381.259,98.502 C376.333,108.740 369.472,113.858 360.673,113.858 C355.249,113.858 350.587,111.314 346.686,106.222 C342.785,101.131 340.834,94.933 340.834,87.628 C340.834,76.229 344.831,66.185 352.829,57.496 C360.825,48.809 368.779,44.464 376.693,44.464 C384.219,44.464 388.757,48.587 390.307,56.832 L390.639,56.832 L393.046,45.958 L408.817,45.958 L397.611,93.272 C396.560,97.534 396.034,100.882 396.034,103.316 C396.034,105.586 396.836,106.720 398.441,106.720 C399.770,106.720 401.650,105.130 404.086,101.947 C406.520,98.765 409.011,94.048 411.557,87.794 L414.960,87.794 C411.972,96.759 408.457,103.345 404.418,107.550 C400.378,111.756 396.477,113.858 392.714,113.858 ZM385.119,52.516 C383.264,49.639 380.678,48.199 377.358,48.199 C373.649,48.199 370.634,49.915 368.310,53.346 C365.985,56.778 363.315,64.842 360.299,77.542 C357.283,90.243 355.775,98.198 355.775,101.407 C355.775,106.831 357.878,109.542 362.084,109.542 C365.127,109.542 368.240,108.353 371.422,105.973 C374.604,103.594 378.146,97.977 382.047,89.122 C385.949,80.269 387.900,71.663 387.900,63.307 C387.900,58.990 386.972,55.394 385.119,52.516 ZM324.042,63.307 C322.216,63.307 320.722,62.684 319.560,61.439 C318.398,60.194 317.817,58.658 317.817,56.832 C317.817,56.058 318.010,55.047 318.398,53.802 C318.784,52.557 318.979,51.548 318.979,50.772 C318.979,49.058 316.709,48.199 312.172,48.199 C307.966,48.199 304.646,49.058 302.211,50.772 C299.775,52.488 298.559,54.647 298.559,57.247 C298.559,59.073 299.264,60.872 300.676,62.643 C302.087,64.414 305.683,66.834 311.467,69.906 C317.249,72.977 321.482,76.160 324.167,79.452 C326.850,82.745 328.193,86.494 328.193,90.699 C328.193,97.506 325.342,103.067 319.643,107.384 C313.943,111.700 307.219,113.858 299.472,113.858 C293.274,113.858 288.141,112.447 284.074,109.625 C280.007,106.803 277.973,103.511 277.973,99.747 C277.973,97.534 278.679,95.667 280.090,94.144 C281.501,92.623 283.257,91.861 285.361,91.861 C287.407,91.861 288.984,92.540 290.092,93.895 C291.198,95.252 291.752,96.787 291.752,98.502 C291.752,99.776 291.420,101.158 290.756,102.652 C290.092,104.146 289.760,105.088 289.760,105.475 C289.760,108.574 293.163,110.123 299.970,110.123 C305.171,110.123 309.336,108.975 312.463,106.678 C315.588,104.383 317.153,101.768 317.153,98.834 C317.153,94.131 312.780,89.676 304.037,85.470 C293.025,80.103 287.519,73.296 287.519,65.050 C287.519,60.015 289.815,55.325 294.409,50.980 C299.001,46.636 305.034,44.464 312.504,44.464 C318.149,44.464 322.644,45.516 325.993,47.618 C329.341,49.722 331.015,52.571 331.015,56.168 C331.015,58.216 330.309,59.918 328.898,61.273 C327.487,62.630 325.868,63.307 324.042,63.307 ZM262.592,63.307 C260.766,63.307 259.272,62.684 258.110,61.439 C256.948,60.194 256.367,58.658 256.367,56.832 C256.367,56.058 256.560,55.047 256.948,53.802 C257.334,52.557 257.529,51.548 257.529,50.772 C257.529,49.058 255.259,48.199 250.722,48.199 C246.516,48.199 243.196,49.058 240.761,50.772 C238.325,52.488 237.109,54.647 237.109,57.247 C237.109,59.073 237.814,60.872 239.226,62.643 C240.637,64.414 244.233,66.834 250.017,69.906 C255.799,72.977 260.032,76.160 262.717,79.452 C265.400,82.745 266.743,86.494 266.743,90.699 C266.743,97.506 263.892,103.067 258.193,107.384 C252.493,111.700 245.769,113.858 238.022,113.858 C231.824,113.858 226.691,112.447 222.624,109.625 C218.557,106.803 216.523,103.511 216.523,99.747 C216.523,97.534 217.229,95.667 218.640,94.144 C220.051,92.623 221.807,91.861 223.911,91.861 C225.957,91.861 227.534,92.540 228.642,93.895 C229.748,95.252 230.302,96.787 230.302,98.502 C230.302,99.776 229.970,101.158 229.306,102.652 C228.642,104.146 228.310,105.088 228.310,105.475 C228.310,108.574 231.713,110.123 238.520,110.123 C243.721,110.123 247.886,108.975 251.013,106.678 C254.138,104.383 255.703,101.768 255.703,98.834 C255.703,94.131 251.330,89.676 242.587,85.470 C231.575,80.103 226.069,73.296 226.069,65.050 C226.069,60.015 228.365,55.325 232.958,50.980 C237.551,46.636 243.583,44.464 251.054,44.464 C256.699,44.464 261.194,45.516 264.543,47.618 C267.891,49.722 269.565,52.571 269.565,56.168 C269.565,58.216 268.859,59.918 267.448,61.273 C266.037,62.630 264.418,63.307 262.592,63.307 ZM174.497,83.063 C172.227,93.245 171.093,99.305 171.093,101.241 C171.093,103.565 171.951,105.628 173.667,107.425 C175.381,109.224 177.817,110.123 180.971,110.123 C191.098,110.123 199.648,103.372 206.621,89.869 L210.190,89.869 C206.482,98.060 201.972,104.105 196.660,108.006 C191.347,111.908 185.896,113.858 180.307,113.858 C173.445,113.858 167.759,111.023 163.249,105.350 C158.738,99.678 156.484,93.106 156.484,85.636 C156.484,75.731 160.427,66.392 168.313,57.621 C176.198,48.850 184.541,44.464 193.340,44.464 C199.039,44.464 203.438,46.221 206.538,49.735 C209.636,53.250 211.186,57.110 211.186,61.314 C211.186,65.631 209.083,70.294 204.878,75.301 C200.671,80.310 190.545,82.896 174.497,83.063 ZM192.509,48.199 C188.137,48.199 184.790,50.191 182.466,54.176 C180.141,58.160 177.761,66.544 175.327,79.327 C183.074,79.161 188.235,78.096 190.808,76.131 C193.381,74.168 195.469,70.999 197.075,66.627 C198.679,62.256 199.482,58.714 199.482,56.002 C199.482,50.801 197.158,48.199 192.509,48.199 ZM146.018,4.703 L123.938,107.550 L139.211,107.550 L138.381,111.783 L88.245,111.783 L89.075,107.550 L104.514,107.550 L126.428,4.703 L124.934,4.703 L63.757,111.783 L59.773,111.783 L44.001,4.703 L42.507,4.703 L20.510,107.550 L36.697,107.550 L35.867,111.783 L0.173,111.783 L1.169,107.550 L16.443,107.550 L38.357,4.703 L23.083,4.703 L23.914,0.470 L62.180,0.470 L74.465,83.727 L74.797,83.727 L122.859,0.470 L162.288,0.470 L161.458,4.703 L146.018,4.703 Z"/>
</svg>