<svg  xmlns="http://www.w3.org/2000/svg" xmlns:xlink="http://www.w3.org/1999/xlink" width="796" height="159" viewBox="0 0 796 159">
<defs>
<linearGradient id="PSgrad_0" x1="0%" x2="100%" y1="0%" y2="0%">
  <stop offset="1%" stop-color="rgb(0,183,184)" stop-opacity="1" />
  <stop offset="65%" stop-color="rgb(95,213,133)" stop-opacity="1" />
  <stop offset="100%" stop-color="rgb(190,243,81)" stop-opacity="1" />
</linearGradient>
</defs>
<path fill-rule="evenodd"  fill="rgb(0, 185, 183)"
 d="M776.684,108.305 C781.609,108.305 786.589,102.245 791.626,90.126 L795.527,90.126 C792.317,98.815 788.401,105.150 783.781,109.135 C779.160,113.119 774.470,115.111 769.711,115.111 C762.129,115.111 758.339,111.542 758.339,104.403 C758.339,101.969 758.948,98.289 760.166,93.363 L767.138,65.556 C767.193,65.224 767.414,64.339 767.802,62.899 C768.189,61.461 768.383,59.940 768.383,58.334 C768.383,54.627 766.889,52.772 763.901,52.772 C760.635,52.772 756.001,55.567 749.997,61.156 C743.992,66.746 739.165,77.316 735.512,92.865 L730.615,113.783 L714.926,113.783 L729.204,52.772 L714.926,52.772 L715.839,48.539 L727.045,48.539 C734.737,48.539 741.184,48.070 746.386,47.128 L742.153,65.141 L742.485,65.473 C751.836,52.801 761.465,46.464 771.372,46.464 C775.024,46.464 778.039,47.557 780.419,49.743 C782.798,51.929 783.989,54.848 783.989,58.500 C783.989,59.994 783.545,62.623 782.661,66.386 L775.107,97.099 C774.331,100.309 773.945,102.689 773.945,104.237 C773.945,106.949 774.858,108.305 776.684,108.305 ZM666.307,115.858 C659.003,115.858 653.151,113.175 648.751,107.807 C644.352,102.440 642.152,95.604 642.152,87.304 C642.152,76.402 646.025,66.871 653.773,58.708 C661.520,50.546 670.153,46.464 679.672,46.464 C687.308,46.464 693.215,49.203 697.394,54.682 C701.571,60.160 703.661,66.718 703.661,74.354 C703.661,85.035 699.718,94.623 691.832,103.117 C683.947,111.612 675.438,115.858 666.307,115.858 ZM685.939,53.104 C684.306,51.168 681.996,50.199 679.008,50.199 C674.525,50.199 671.301,52.025 669.337,55.678 C667.372,59.330 664.896,66.732 661.908,77.882 C658.920,89.034 657.426,97.154 657.426,102.245 C657.426,105.455 658.324,107.904 660.123,109.591 C661.921,111.280 664.038,112.123 666.473,112.123 C673.390,112.123 678.772,104.584 682.618,89.503 C686.464,74.425 688.387,64.781 688.387,60.575 C688.387,57.532 687.570,55.042 685.939,53.104 ZM606.553,115.858 C599.248,115.858 595.596,112.040 595.596,104.403 C595.596,102.079 595.928,99.617 596.592,97.016 C597.256,94.415 597.781,92.284 598.169,90.624 L607.383,52.772 L591.694,52.772 L592.607,48.539 L602.236,48.539 C610.149,48.539 617.593,48.014 624.565,46.962 L612.114,98.178 C611.228,102.384 610.786,105.096 610.786,106.313 C610.786,108.360 611.809,109.384 613.857,109.384 C616.402,109.384 619.349,107.545 622.698,103.864 C626.045,100.184 629.324,94.720 632.534,87.470 L636.269,87.470 C629.019,106.396 619.114,115.858 606.553,115.858 ZM623.818,21.479 C621.383,21.479 619.253,20.580 617.427,18.781 C615.601,16.983 614.687,14.811 614.687,12.265 C614.687,9.774 615.601,7.630 617.427,5.832 C619.253,4.034 621.383,3.134 623.818,3.134 C626.363,3.134 628.535,4.020 630.334,5.790 C632.132,7.562 633.032,9.720 633.032,12.265 C633.032,14.811 632.119,16.983 630.293,18.781 C628.467,20.580 626.309,21.479 623.818,21.479 ZM584.104,52.772 L573.230,52.772 L562.190,99.506 C561.304,102.992 560.861,105.482 560.861,106.977 C560.861,109.135 561.775,110.214 563.601,110.214 C568.027,110.214 572.898,103.573 578.210,90.292 L581.613,90.292 C578.957,98.649 575.525,104.999 571.320,109.342 C567.114,113.687 562.605,115.858 557.790,115.858 C549.987,115.858 546.086,111.874 546.086,103.905 C546.086,101.637 546.750,97.625 548.078,91.869 L557.292,52.772 L546.418,52.772 L547.248,48.539 L558.454,48.539 L562.190,32.519 C567.834,32.464 573.174,31.661 578.210,30.111 L574.309,48.539 L585.017,48.539 L584.104,52.772 ZM518.014,115.858 C511.152,115.858 507.443,110.740 506.891,100.502 L506.559,100.502 C501.633,110.740 494.772,115.858 485.973,115.858 C480.549,115.858 475.888,113.314 471.986,108.222 C468.085,103.131 466.134,96.933 466.134,89.628 C466.134,78.229 470.131,68.185 478.129,59.496 C486.125,50.809 494.079,46.464 501.994,46.464 C509.519,46.464 514.057,50.587 515.607,58.832 L515.939,58.832 L518.346,47.958 L534.118,47.958 L522.911,95.272 C521.860,99.534 521.334,102.882 521.334,105.316 C521.334,107.586 522.136,108.720 523.742,108.720 C525.070,108.720 526.950,107.130 529.386,103.947 C531.821,100.765 534.311,96.048 536.857,89.794 L540.260,89.794 C537.272,98.759 533.757,105.345 529.718,109.550 C525.678,113.756 521.777,115.858 518.014,115.858 ZM510.419,54.516 C508.564,51.639 505.978,50.199 502.658,50.199 C498.949,50.199 495.934,51.915 493.610,55.346 C491.285,58.778 488.615,66.842 485.599,79.542 C482.583,92.243 481.076,100.198 481.076,103.407 C481.076,108.831 483.178,111.542 487.384,111.542 C490.427,111.542 493.540,110.353 496.723,107.973 C499.904,105.594 503.446,99.977 507.348,91.122 C511.249,82.269 513.200,73.663 513.200,65.307 C513.200,60.990 512.272,57.394 510.419,54.516 ZM434.894,115.111 C431.186,115.111 428.183,114.184 425.888,112.331 C423.591,110.477 422.443,107.724 422.443,104.071 C422.443,102.689 422.912,100.198 423.854,96.601 L431.823,64.975 C432.043,64.588 432.348,63.356 432.736,61.281 C433.122,59.206 433.317,57.781 433.317,57.006 C433.317,55.900 432.873,54.918 431.989,54.059 C431.103,53.202 430.080,52.772 428.918,52.772 C425.707,52.772 421.156,55.526 415.263,61.032 C409.369,66.539 404.900,75.628 401.857,88.300 L395.797,113.783 L379.943,113.783 L390.651,68.710 C392.034,63.121 392.726,59.496 392.726,57.836 C392.726,56.564 392.297,55.374 391.440,54.267 C390.581,53.160 389.489,52.606 388.161,52.606 C384.840,52.606 380.344,55.665 374.672,61.779 C368.999,67.894 364.753,76.900 361.930,88.798 L355.954,113.783 L340.016,113.783 L354.792,52.772 L340.680,52.772 L341.510,48.539 L354.792,48.539 C360.712,48.539 366.330,48.070 371.642,47.128 L367.243,65.307 L367.575,65.639 C376.096,52.855 385.144,46.464 394.718,46.464 C398.979,46.464 402.285,47.613 404.638,49.909 C406.989,52.206 408.166,54.737 408.166,57.504 C408.166,58.058 407.888,60.438 407.336,64.643 L407.668,64.975 C416.023,52.635 425.486,46.464 436.056,46.464 C439.487,46.464 442.419,47.516 444.855,49.618 C447.290,51.722 448.507,54.405 448.507,57.670 C448.507,59.884 448.037,62.845 447.096,66.552 L439.460,97.597 C438.574,101.637 438.131,104.100 438.131,104.984 C438.131,107.364 438.961,108.554 440.622,108.554 C442.226,108.554 444.426,107.115 447.221,104.237 C450.014,101.361 452.519,96.601 454.733,89.960 L458.634,89.960 C456.199,98.261 452.727,104.528 448.217,108.761 C443.706,112.995 439.265,115.111 434.894,115.111 ZM329.134,61.903 C326.920,61.903 325.108,61.226 323.697,59.870 C322.285,58.514 321.385,57.836 320.999,57.836 C319.781,57.836 317.844,59.745 315.188,63.563 C312.532,67.382 310.470,71.117 309.004,74.770 C307.537,78.422 305.919,84.122 304.148,91.869 L298.919,114.613 L283.230,114.613 L296.844,52.772 L284.060,52.772 L285.139,48.539 L295.515,48.539 C302.598,48.539 308.492,48.180 313.196,47.460 L308.382,68.046 L308.714,68.378 C316.295,53.769 323.101,46.464 329.134,46.464 C331.402,46.464 333.325,47.211 334.903,48.705 C336.480,50.199 337.268,52.054 337.268,54.267 C337.268,56.481 336.507,58.307 334.986,59.745 C333.463,61.185 331.512,61.903 329.134,61.903 ZM235.607,115.858 C228.303,115.858 222.451,113.175 218.051,107.807 C213.652,102.440 211.452,95.604 211.452,87.304 C211.452,76.402 215.325,66.871 223.073,58.708 C230.820,50.546 239.453,46.464 248.972,46.464 C256.608,46.464 262.515,49.203 266.694,54.682 C270.871,60.160 272.961,66.718 272.961,74.354 C272.961,85.035 269.018,94.623 261.132,103.117 C253.247,111.612 244.738,115.858 235.607,115.858 ZM255.239,53.104 C253.606,51.168 251.296,50.199 248.308,50.199 C243.825,50.199 240.601,52.025 238.637,55.678 C236.672,59.330 234.196,66.732 231.208,77.882 C228.220,89.034 226.726,97.154 226.726,102.245 C226.726,105.455 227.624,107.904 229.423,109.591 C231.221,111.280 233.338,112.123 235.773,112.123 C242.690,112.123 248.072,104.584 251.918,89.503 C255.764,74.425 257.687,64.781 257.687,60.575 C257.687,57.532 256.870,55.042 255.239,53.104 ZM224.578,21.313 C222.586,21.313 220.843,20.580 219.349,19.113 C217.855,17.647 217.108,15.946 217.108,14.008 C217.108,12.071 217.909,10.301 219.515,8.695 C221.119,7.091 221.922,6.205 221.922,6.039 C221.922,4.877 220.262,4.296 216.942,4.296 C209.471,4.296 204.144,8.336 200.963,16.415 C197.780,24.495 195.470,35.203 194.031,48.539 L206.068,48.539 L205.237,52.772 L193.533,52.772 L187.474,88.798 C185.482,100.530 183.461,110.076 181.414,117.436 C179.366,124.795 176.918,131.298 174.068,136.942 C171.217,142.587 168.340,146.862 165.435,149.767 C162.530,152.672 159.347,154.831 155.889,156.242 C152.432,157.653 149.263,158.358 146.385,158.358 C142.346,158.358 138.901,157.238 136.050,154.997 C133.201,152.755 131.776,150.058 131.776,146.903 C131.776,144.800 132.412,142.973 133.685,141.425 C134.958,139.875 136.868,139.101 139.412,139.101 C144.061,139.101 146.385,141.701 146.385,146.903 C146.385,148.231 146.081,149.394 145.472,150.390 C144.864,151.386 144.559,152.216 144.559,152.880 C144.559,153.876 145.334,154.374 146.883,154.374 C151.311,154.374 155.321,152.174 158.919,147.775 C162.516,143.375 165.836,129.721 168.880,106.811 L172.283,80.829 L176.517,57.006 C176.571,56.785 176.710,56.051 176.932,54.806 C177.152,53.561 177.291,52.884 177.347,52.772 L162.073,52.772 L162.903,48.539 L178.343,48.539 C181.663,32.325 186.823,20.248 193.824,12.306 C200.824,4.366 208.143,0.395 215.779,0.395 C220.206,0.395 223.997,1.640 227.152,4.130 C230.306,6.620 231.883,9.637 231.883,13.178 C231.883,15.392 231.177,17.301 229.766,18.905 C228.355,20.511 226.625,21.313 224.578,21.313 ZM126.661,115.111 C119.079,115.111 115.289,111.542 115.289,104.403 C115.289,101.969 115.898,98.289 117.116,93.363 L124.088,65.556 C124.143,65.224 124.364,64.339 124.752,62.899 C125.139,61.461 125.333,59.940 125.333,58.334 C125.333,54.627 123.839,52.772 120.851,52.772 C117.585,52.772 112.951,55.567 106.947,61.156 C100.942,66.746 96.115,77.316 92.462,92.865 L87.565,113.783 L71.876,113.783 L86.154,52.772 L71.876,52.772 L72.789,48.539 L83.995,48.539 C91.687,48.539 98.134,48.070 103.336,47.128 L99.103,65.141 L99.435,65.473 C108.786,52.801 118.415,46.464 128.322,46.464 C131.974,46.464 134.989,47.557 137.369,49.743 C139.748,51.929 140.939,54.848 140.939,58.500 C140.939,59.994 140.495,62.623 139.611,66.386 L132.057,97.099 C131.281,100.309 130.895,102.689 130.895,104.237 C130.895,106.949 131.808,108.305 133.634,108.305 C138.559,108.305 143.539,102.245 148.576,90.126 L152.477,90.126 C149.267,98.815 145.351,105.150 140.731,109.135 C136.110,113.119 131.420,115.111 126.661,115.111 ZM58.573,6.703 L36.327,109.550 L51.683,109.550 L50.770,113.783 L0.468,113.783 L1.464,109.550 L16.820,109.550 L39.066,6.703 L23.793,6.703 L24.789,2.470 L74.926,2.470 L74.095,6.703 L58.573,6.703 Z"/>
<path fill="url(#PSgrad_0)"
 d="M776.684,108.305 C781.609,108.305 786.589,102.245 791.626,90.126 L795.527,90.126 C792.317,98.815 788.401,105.150 783.781,109.135 C779.160,113.119 774.470,115.111 769.711,115.111 C762.129,115.111 758.339,111.542 758.339,104.403 C758.339,101.969 758.948,98.289 760.166,93.363 L767.138,65.556 C767.193,65.224 767.414,64.339 767.802,62.899 C768.189,61.461 768.383,59.940 768.383,58.334 C768.383,54.627 766.889,52.772 763.901,52.772 C760.635,52.772 756.001,55.567 749.997,61.156 C743.992,66.746 739.165,77.316 735.512,92.865 L730.615,113.783 L714.926,113.783 L729.204,52.772 L714.926,52.772 L715.839,48.539 L727.045,48.539 C734.737,48.539 741.184,48.070 746.386,47.128 L742.153,65.141 L742.485,65.473 C751.836,52.801 761.465,46.464 771.372,46.464 C775.024,46.464 778.039,47.557 780.419,49.743 C782.798,51.929 783.989,54.848 783.989,58.500 C783.989,59.994 783.545,62.623 782.661,66.386 L775.107,97.099 C774.331,100.309 773.945,102.689 773.945,104.237 C773.945,106.949 774.858,108.305 776.684,108.305 ZM666.307,115.858 C659.003,115.858 653.151,113.175 648.751,107.807 C644.352,102.440 642.152,95.604 642.152,87.304 C642.152,76.402 646.025,66.871 653.773,58.708 C661.520,50.546 670.153,46.464 679.672,46.464 C687.308,46.464 693.215,49.203 697.394,54.682 C701.571,60.160 703.661,66.718 703.661,74.354 C703.661,85.035 699.718,94.623 691.832,103.117 C683.947,111.612 675.438,115.858 666.307,115.858 ZM685.939,53.104 C684.306,51.168 681.996,50.199 679.008,50.199 C674.525,50.199 671.301,52.025 669.337,55.678 C667.372,59.330 664.896,66.732 661.908,77.882 C658.920,89.034 657.426,97.154 657.426,102.245 C657.426,105.455 658.324,107.904 660.123,109.591 C661.921,111.280 664.038,112.123 666.473,112.123 C673.390,112.123 678.772,104.584 682.618,89.503 C686.464,74.425 688.387,64.781 688.387,60.575 C688.387,57.532 687.570,55.042 685.939,53.104 ZM606.553,115.858 C599.248,115.858 595.596,112.040 595.596,104.403 C595.596,102.079 595.928,99.617 596.592,97.016 C597.256,94.415 597.781,92.284 598.169,90.624 L607.383,52.772 L591.694,52.772 L592.607,48.539 L602.236,48.539 C610.149,48.539 617.593,48.014 624.565,46.962 L612.114,98.178 C611.228,102.384 610.786,105.096 610.786,106.313 C610.786,108.360 611.809,109.384 613.857,109.384 C616.402,109.384 619.349,107.545 622.698,103.864 C626.045,100.184 629.324,94.720 632.534,87.470 L636.269,87.470 C629.019,106.396 619.114,115.858 606.553,115.858 ZM623.818,21.479 C621.383,21.479 619.253,20.580 617.427,18.781 C615.601,16.983 614.687,14.811 614.687,12.265 C614.687,9.774 615.601,7.630 617.427,5.832 C619.253,4.034 621.383,3.134 623.818,3.134 C626.363,3.134 628.535,4.020 630.334,5.790 C632.132,7.562 633.032,9.720 633.032,12.265 C633.032,14.811 632.119,16.983 630.293,18.781 C628.467,20.580 626.309,21.479 623.818,21.479 ZM584.104,52.772 L573.230,52.772 L562.190,99.506 C561.304,102.992 560.861,105.482 560.861,106.977 C560.861,109.135 561.775,110.214 563.601,110.214 C568.027,110.214 572.898,103.573 578.210,90.292 L581.613,90.292 C578.957,98.649 575.525,104.999 571.320,109.342 C567.114,113.687 562.605,115.858 557.790,115.858 C549.987,115.858 546.086,111.874 546.086,103.905 C546.086,101.637 546.750,97.625 548.078,91.869 L557.292,52.772 L546.418,52.772 L547.248,48.539 L558.454,48.539 L562.190,32.519 C567.834,32.464 573.174,31.661 578.210,30.111 L574.309,48.539 L585.017,48.539 L584.104,52.772 ZM518.014,115.858 C511.152,115.858 507.443,110.740 506.891,100.502 L506.559,100.502 C501.633,110.740 494.772,115.858 485.973,115.858 C480.549,115.858 475.888,113.314 471.986,108.222 C468.085,103.131 466.134,96.933 466.134,89.628 C466.134,78.229 470.131,68.185 478.129,59.496 C486.125,50.809 494.079,46.464 501.994,46.464 C509.519,46.464 514.057,50.587 515.607,58.832 L515.939,58.832 L518.346,47.958 L534.118,47.958 L522.911,95.272 C521.860,99.534 521.334,102.882 521.334,105.316 C521.334,107.586 522.136,108.720 523.742,108.720 C525.070,108.720 526.950,107.130 529.386,103.947 C531.821,100.765 534.311,96.048 536.857,89.794 L540.260,89.794 C537.272,98.759 533.757,105.345 529.718,109.550 C525.678,113.756 521.777,115.858 518.014,115.858 ZM510.419,54.516 C508.564,51.639 505.978,50.199 502.658,50.199 C498.949,50.199 495.934,51.915 493.610,55.346 C491.285,58.778 488.615,66.842 485.599,79.542 C482.583,92.243 481.076,100.198 481.076,103.407 C481.076,108.831 483.178,111.542 487.384,111.542 C490.427,111.542 493.540,110.353 496.723,107.973 C499.904,105.594 503.446,99.977 507.348,91.122 C511.249,82.269 513.200,73.663 513.200,65.307 C513.200,60.990 512.272,57.394 510.419,54.516 ZM434.894,115.111 C431.186,115.111 428.183,114.184 425.888,112.331 C423.591,110.477 422.443,107.724 422.443,104.071 C422.443,102.689 422.912,100.198 423.854,96.601 L431.823,64.975 C432.043,64.588 432.348,63.356 432.736,61.281 C433.122,59.206 433.317,57.781 433.317,57.006 C433.317,55.900 432.873,54.918 431.989,54.059 C431.103,53.202 430.080,52.772 428.918,52.772 C425.707,52.772 421.156,55.526 415.263,61.032 C409.369,66.539 404.900,75.628 401.857,88.300 L395.797,113.783 L379.943,113.783 L390.651,68.710 C392.034,63.121 392.726,59.496 392.726,57.836 C392.726,56.564 392.297,55.374 391.440,54.267 C390.581,53.160 389.489,52.606 388.161,52.606 C384.840,52.606 380.344,55.665 374.672,61.779 C368.999,67.894 364.753,76.900 361.930,88.798 L355.954,113.783 L340.016,113.783 L354.792,52.772 L340.680,52.772 L341.510,48.539 L354.792,48.539 C360.712,48.539 366.330,48.070 371.642,47.128 L367.243,65.307 L367.575,65.639 C376.096,52.855 385.144,46.464 394.718,46.464 C398.979,46.464 402.285,47.613 404.638,49.909 C406.989,52.206 408.166,54.737 408.166,57.504 C408.166,58.058 407.888,60.438 407.336,64.643 L407.668,64.975 C416.023,52.635 425.486,46.464 436.056,46.464 C439.487,46.464 442.419,47.516 444.855,49.618 C447.290,51.722 448.507,54.405 448.507,57.670 C448.507,59.884 448.037,62.845 447.096,66.552 L439.460,97.597 C438.574,101.637 438.131,104.100 438.131,104.984 C438.131,107.364 438.961,108.554 440.622,108.554 C442.226,108.554 444.426,107.115 447.221,104.237 C450.014,101.361 452.519,96.601 454.733,89.960 L458.634,89.960 C456.199,98.261 452.727,104.528 448.217,108.761 C443.706,112.995 439.265,115.111 434.894,115.111 ZM329.134,61.903 C326.920,61.903 325.108,61.226 323.697,59.870 C322.285,58.514 321.385,57.836 320.999,57.836 C319.781,57.836 317.844,59.745 315.188,63.563 C312.532,67.382 310.470,71.117 309.004,74.770 C307.537,78.422 305.919,84.122 304.148,91.869 L298.919,114.613 L283.230,114.613 L296.844,52.772 L284.060,52.772 L285.139,48.539 L295.515,48.539 C302.598,48.539 308.492,48.180 313.196,47.460 L308.382,68.046 L308.714,68.378 C316.295,53.769 323.101,46.464 329.134,46.464 C331.402,46.464 333.325,47.211 334.903,48.705 C336.480,50.199 337.268,52.054 337.268,54.267 C337.268,56.481 336.507,58.307 334.986,59.745 C333.463,61.185 331.512,61.903 329.134,61.903 ZM235.607,115.858 C228.303,115.858 222.451,113.175 218.051,107.807 C213.652,102.440 211.452,95.604 211.452,87.304 C211.452,76.402 215.325,66.871 223.073,58.708 C230.820,50.546 239.453,46.464 248.972,46.464 C256.608,46.464 262.515,49.203 266.694,54.682 C270.871,60.160 272.961,66.718 272.961,74.354 C272.961,85.035 269.018,94.623 261.132,103.117 C253.247,111.612 244.738,115.858 235.607,115.858 ZM255.239,53.104 C253.606,51.168 251.296,50.199 248.308,50.199 C243.825,50.199 240.601,52.025 238.637,55.678 C236.672,59.330 234.196,66.732 231.208,77.882 C228.220,89.034 226.726,97.154 226.726,102.245 C226.726,105.455 227.624,107.904 229.423,109.591 C231.221,111.280 233.338,112.123 235.773,112.123 C242.690,112.123 248.072,104.584 251.918,89.503 C255.764,74.425 257.687,64.781 257.687,60.575 C257.687,57.532 256.870,55.042 255.239,53.104 ZM224.578,21.313 C222.586,21.313 220.843,20.580 219.349,19.113 C217.855,17.647 217.108,15.946 217.108,14.008 C217.108,12.071 217.909,10.301 219.515,8.695 C221.119,7.091 221.922,6.205 221.922,6.039 C221.922,4.877 220.262,4.296 216.942,4.296 C209.471,4.296 204.144,8.336 200.963,16.415 C197.780,24.495 195.470,35.203 194.031,48.539 L206.068,48.539 L205.237,52.772 L193.533,52.772 L187.474,88.798 C185.482,100.530 183.461,110.076 181.414,117.436 C179.366,124.795 176.918,131.298 174.068,136.942 C171.217,142.587 168.340,146.862 165.435,149.767 C162.530,152.672 159.347,154.831 155.889,156.242 C152.432,157.653 149.263,158.358 146.385,158.358 C142.346,158.358 138.901,157.238 136.050,154.997 C133.201,152.755 131.776,150.058 131.776,146.903 C131.776,144.800 132.412,142.973 133.685,141.425 C134.958,139.875 136.868,139.101 139.412,139.101 C144.061,139.101 146.385,141.701 146.385,146.903 C146.385,148.231 146.081,149.394 145.472,150.390 C144.864,151.386 144.559,152.216 144.559,152.880 C144.559,153.876 145.334,154.374 146.883,154.374 C151.311,154.374 155.321,152.174 158.919,147.775 C162.516,143.375 165.836,129.721 168.880,106.811 L172.283,80.829 L176.517,57.006 C176.571,56.785 176.710,56.051 176.932,54.806 C177.152,53.561 177.291,52.884 177.347,52.772 L162.073,52.772 L162.903,48.539 L178.343,48.539 C181.663,32.325 186.823,20.248 193.824,12.306 C200.824,4.366 208.143,0.395 215.779,0.395 C220.206,0.395 223.997,1.640 227.152,4.130 C230.306,6.620 231.883,9.637 231.883,13.178 C231.883,15.392 231.177,17.301 229.766,18.905 C228.355,20.511 226.625,21.313 224.578,21.313 ZM126.661,115.111 C119.079,115.111 115.289,111.542 115.289,104.403 C115.289,101.969 115.898,98.289 117.116,93.363 L124.088,65.556 C124.143,65.224 124.364,64.339 124.752,62.899 C125.139,61.461 125.333,59.940 125.333,58.334 C125.333,54.627 123.839,52.772 120.851,52.772 C117.585,52.772 112.951,55.567 106.947,61.156 C100.942,66.746 96.115,77.316 92.462,92.865 L87.565,113.783 L71.876,113.783 L86.154,52.772 L71.876,52.772 L72.789,48.539 L83.995,48.539 C91.687,48.539 98.134,48.070 103.336,47.128 L99.103,65.141 L99.435,65.473 C108.786,52.801 118.415,46.464 128.322,46.464 C131.974,46.464 134.989,47.557 137.369,49.743 C139.748,51.929 140.939,54.848 140.939,58.500 C140.939,59.994 140.495,62.623 139.611,66.386 L132.057,97.099 C131.281,100.309 130.895,102.689 130.895,104.237 C130.895,106.949 131.808,108.305 133.634,108.305 C138.559,108.305 143.539,102.245 148.576,90.126 L152.477,90.126 C149.267,98.815 145.351,105.150 140.731,109.135 C136.110,113.119 131.420,115.111 126.661,115.111 ZM58.573,6.703 L36.327,109.550 L51.683,109.550 L50.770,113.783 L0.468,113.783 L1.464,109.550 L16.820,109.550 L39.066,6.703 L23.793,6.703 L24.789,2.470 L74.926,2.470 L74.095,6.703 L58.573,6.703 Z"/>
</svg>