<svg xmlns="http://www.w3.org/2000/svg" xmlns:xlink="http://www.w3.org/1999/xlink" viewBox="0 0 453.72 113.39" width="454" height="114">
<defs>
<style>.cls-1{fill:url(#Gradation_2);}</style>
<linearGradient id="Gradation_2" x1="-69.99" y1="473.99" x2="-68.99" y2="473.99" gradientTransform="matrix(453.72, 0, 0, -113.39, 31755.22, 53800.99)" gradientUnits="userSpaceOnUse">
<stop offset="0.01" stop-color="#00b7b8"/>
<stop offset="0.65" stop-color="#5fd585"/>
<stop offset="1" stop-color="#bef351"/>
</linearGradient>
</defs>
<path class="cls-1" d="M434.88,105.84q7.38,0,14.94-18.18h3.9q-4.82,13-11.75,19t-14.07,6q-11.37,0-11.37-10.71a51,51,0,0,1,1.83-11l7-27.8c.05-.34.27-1.22.66-2.66a17.39,17.39,0,0,0,.58-4.57c0-3.7-1.49-5.56-4.48-5.56q-4.89,0-13.9,8.39T393.7,90.39l-4.89,20.92H373.12l14.27-61H373.12l.91-4.23h11.21a111.29,111.29,0,0,0,19.34-1.41l-4.24,18,.34.33q14-19,28.88-19a12.88,12.88,0,0,1,9.05,3.28A11.33,11.33,0,0,1,442.18,56a40.74,40.74,0,0,1-1.33,7.89L433.3,94.63a33.57,33.57,0,0,0-1.16,7.14Q432.14,105.84,434.88,105.84ZM324.5,113.39q-11,0-17.56-8t-6.6-20.51A40.24,40.24,0,0,1,312,56.24Q323.58,44,337.86,44q11.46,0,17.73,8.22a31.55,31.55,0,0,1,6.26,19.67q0,16-11.83,28.77T324.5,113.39Zm19.63-62.76a8.57,8.57,0,0,0-6.93-2.9q-6.72,0-9.67,5.48t-7.43,22.2q-4.49,16.73-4.48,24.37c0,3.21.89,5.65,2.69,7.34a9,9,0,0,0,6.35,2.53q10.38,0,16.15-22.62t5.77-28.92A11.23,11.23,0,0,0,344.13,50.63ZM283.88,62.84A5.88,5.88,0,0,1,279.4,61a6.51,6.51,0,0,1-1.74-4.61,10.7,10.7,0,0,1,.58-3,10.58,10.58,0,0,0,.58-3q0-2.56-6.81-2.57-6.3,0-10,2.57a7.7,7.7,0,0,0-3.65,6.48,8.57,8.57,0,0,0,2.12,5.39q2.12,2.65,10.79,7.27T284,79a17.34,17.34,0,0,1,4,11.25q0,10.22-8.55,16.68a32.44,32.44,0,0,1-20.17,6.48q-9.3,0-15.39-4.23t-6.11-9.88a8,8,0,0,1,2.12-5.61,6.9,6.9,0,0,1,5.27-2.28,5.76,5.76,0,0,1,4.73,2A7.1,7.1,0,0,1,251.59,98a10.3,10.3,0,0,1-1,4.15,10.47,10.47,0,0,0-1,2.82q0,4.65,10.21,4.65,7.8,0,12.49-3.44T277,98.36q0-7-13.11-13.36-16.51-8.06-16.52-20.42,0-7.56,6.89-14.07T272.35,44q8.46,0,13.48,3.16t5,8.55a7.1,7.1,0,0,1-7,7.14Zm-61.45,0A5.88,5.88,0,0,1,218,61a6.51,6.51,0,0,1-1.74-4.61,10.7,10.7,0,0,1,.58-3,10.94,10.94,0,0,0,.58-3q0-2.56-6.81-2.57-6.3,0-10,2.57A7.7,7.7,0,0,0,197,56.78a8.62,8.62,0,0,0,2.12,5.39q2.12,2.65,10.79,7.27T222.56,79a17.34,17.34,0,0,1,4,11.25q0,10.22-8.55,16.68a32.44,32.44,0,0,1-20.17,6.48q-9.29,0-15.39-4.23t-6.11-9.88a8,8,0,0,1,2.12-5.61,6.9,6.9,0,0,1,5.27-2.28,5.77,5.77,0,0,1,4.73,2A7.1,7.1,0,0,1,190.14,98a10.3,10.3,0,0,1-1,4.15,10.47,10.47,0,0,0-1,2.82q0,4.65,10.21,4.65,7.8,0,12.49-3.44t4.69-7.85q0-7-13.11-13.36-16.52-8.06-16.52-20.42,0-7.56,6.89-14.07T210.89,44q8.48,0,13.49,3.16t5,8.55a7.1,7.1,0,0,1-7,7.14ZM134.34,82.59q-3.41,15.28-3.41,18.18a8.7,8.7,0,0,0,2.58,6.19c1.71,1.79,4.15,2.69,7.3,2.69q15.19,0,25.65-20.25H170q-5.57,12.28-13.53,18.14t-16.35,5.85q-10.29,0-17.06-8.51a30.76,30.76,0,0,1-6.77-19.71q0-14.86,11.83-28t25-13.16q8.55,0,13.2,5.28A17.11,17.11,0,0,1,171,60.84q0,6.48-6.31,14T134.34,82.59Zm18-34.86q-6.56,0-10,6t-7.14,25.15q11.63-.26,15.48-3.2t6.27-9.5a32.75,32.75,0,0,0,2.4-10.63Q159.32,47.73,152.35,47.73ZM0,111.31l.91-4.23H16.35L37.93,4.23H21.42L22.33,0H74.62l-1,4.23H57.27L35.36,107.08H57.27q10.54,0,16.44-2t11-8.67q5.06-6.73,11-21.34H100l-9.87,36.19Z"/>
</svg>